<svg xmlns="http://www.w3.org/2000/svg" xml:space="preserve" width="408.696mm" height="39.4106mm" version="1.1" style="shape-rendering:geometricPrecision; text-rendering:geometricPrecision; image-rendering:optimizeQuality; fill-rule:evenodd; clip-rule:evenodd"
viewBox="0 0 81906 7898"
 xmlns:xlink="http://www.w3.org/1999/xlink">

 <g fill="#ffffff">
  <path d="M344 4269c-260,-360 -388,-788 -331,-1229 135,-1036 1236,-1748 2460,-1589 47,6 93,13 139,22 295,-461 906,-735 1569,-649 677,88 1207,525 1363,1061 417,60 759,291 936,595 380,-254 883,-378 1414,-310 1038,135 1788,956 1674,1834 -57,439 -318,809 -695,1053 -365,348 -881,419 -1302,415 -13,56 -30,111 -51,165 -300,768 -1289,1127 -2210,801 -35,-12 -69,-25 -103,-39 -316,302 -842,408 -1341,232 -509,-180 -838,-602 -858,-1037 -312,-115 -534,-349 -614,-611 -343,131 -757,141 -1156,0 -399,-141 -706,-407 -877,-720l-17 6zm42366 0c-260,-360 -387,-788 -330,-1229 134,-1036 1235,-1748 2460,-1589 46,6 92,13 138,22 295,-461 907,-735 1569,-649 677,88 1208,525 1363,1061 417,60 759,291 936,595 381,-254 884,-378 1414,-310 1038,135 1788,956 1674,1834 -57,439 -318,809 -695,1053 -365,348 -880,419 -1301,415 -14,56 -31,111 -52,165 -300,768 -1289,1127 -2210,801 -35,-12 -69,-25 -103,-39 -316,302 -842,408 -1340,232 -510,-180 -839,-602 -858,-1037 -312,-115 -534,-349 -615,-611 -343,131 -757,141 -1155,0 -400,-141 -707,-407 -877,-720l-18 6zm12854 487c-306,-262 -510,-613 -553,-1015 -103,-944 719,-1807 1835,-1928 42,-5 84,-8 126,-10 163,-470 645,-842 1249,-907 617,-67 1178,206 1430,646 381,-36 732,96 954,327 281,-306 700,-523 1183,-575 946,-103 1783,463 1870,1263 43,400 -109,782 -390,1078 -249,385 -689,558 -1062,645 0,51 -3,104 -10,156 -101,743 -899,1270 -1781,1179 -34,-4 -67,-8 -100,-13 -215,334 -657,540 -1135,491 -488,-51 -869,-353 -979,-734 -300,-35 -546,-194 -673,-408 -275,188 -639,286 -1021,246 -383,-40 -711,-209 -928,-450l-15 9zm13987 224c-382,-458 -592,-1021 -556,-1618 84,-1402 1496,-2459 3153,-2359 64,4 126,9 188,16 353,-645 1149,-1068 2046,-1014 916,55 1668,592 1926,1297 565,42 1045,321 1311,712 487,-376 1151,-589 1868,-546 1406,85 2487,1117 2416,2306 -36,594 -352,1114 -835,1476 -458,501 -1143,644 -1708,678 -13,75 -31,151 -54,226 -332,1058 -1626,1631 -2891,1279 -48,-14 -95,-28 -142,-44 -396,435 -1093,626 -1777,436 -700,-195 -1181,-731 -1247,-1313 -430,-126 -749,-419 -881,-762 -448,207 -1003,259 -1551,107 -549,-153 -985,-482 -1243,-887l-23 10zm-42366 0c-382,-458 -592,-1021 -557,-1618 85,-1402 1497,-2459 3154,-2359 63,4 126,9 188,16 353,-645 1149,-1068 2046,-1014 916,55 1668,592 1926,1297 565,42 1045,321 1311,712 487,-376 1150,-589 1868,-546 1406,85 2487,1117 2416,2306 -36,594 -352,1114 -835,1476 -459,501 -1143,644 -1708,678 -13,75 -31,151 -55,226 -331,1058 -1625,1631 -2890,1279 -48,-14 -96,-28 -142,-44 -396,435 -1093,626 -1778,436 -699,-195 -1180,-731 -1246,-1313 -430,-126 -749,-419 -881,-762 -448,207 -1003,259 -1551,107 -549,-153 -985,-482 -1243,-887l-23 10zm-13987 -224c-306,-262 -510,-613 -553,-1015 -103,-944 719,-1807 1834,-1928 43,-5 85,-8 127,-10 163,-470 645,-842 1248,-907 617,-67 1179,206 1431,646 381,-36 732,96 953,327 282,-306 700,-523 1184,-575 945,-103 1783,463 1869,1263 44,400 -108,782 -389,1078 -249,385 -689,558 -1062,645 0,51 -3,104 -10,156 -101,743 -899,1270 -1782,1179 -33,-4 -66,-8 -99,-13 -215,334 -658,540 -1135,491 -488,-51 -869,-353 -979,-734 -300,-35 -546,-194 -673,-408 -275,188 -639,286 -1021,246 -383,-40 -711,-209 -928,-450l-15 9z"/>
 </g>
</svg>
