<?xml version="1.0" encoding="UTF-8"?>
<!DOCTYPE svg PUBLIC "-//W3C//DTD SVG 1.1//EN" "http://www.w3.org/Graphics/SVG/1.1/DTD/svg11.dtd">
<!-- Creator: CorelDRAW X7 -->
<svg xmlns="http://www.w3.org/2000/svg" xml:space="preserve" width="384.097mm" height="83.7193mm" version="1.1" style="shape-rendering:geometricPrecision; text-rendering:geometricPrecision; image-rendering:optimizeQuality; fill-rule:evenodd; clip-rule:evenodd"
viewBox="0 0 38181 8322"
 xmlns:xlink="http://www.w3.org/1999/xlink">
 <defs>
  <style type="text/css">
   <![CDATA[
    .fil2 {fill:#F19E0F}
    .fil1 {fill:white}
    .fil0 {fill:url(#id0)}
   ]]>
  </style>
  <radialGradient id="id0" gradientUnits="userSpaceOnUse" gradientTransform="matrix(6.9427E-006 0.536453 -1.38133 -0.0438446 20544 -10130)" cx="19854" cy="499.326" r="4379.05" fx="19854" fy="499.326">
   <stop offset="0" style="stop-opacity:1; stop-color:#33CC33"/>
   <stop offset="1" style="stop-opacity:1; stop-color:#027218"/>
  </radialGradient>
 </defs>
 <g id="Слой_x0020_1">
  <metadata id="CorelCorpID_0Corel-Layer"/>
  <ellipse class="fil0" cx="19090" cy="4161" rx="19090" ry="4161"/>
  <g id="_1103379184">
   <path class="fil1" d="M19728 1663c-79,-244 428,-290 192,-71 -94,87 187,-80 207,64 8,60 -144,60 -42,60 84,0 128,72 43,105 -115,46 -159,-40 -190,-57 28,-36 38,125 -79,119 -46,-2 -97,-95 -69,-107 55,33 -298,133 -234,-19 24,-57 184,-20 79,-26 -39,-3 -125,-131 -52,-126 5,-46 141,46 145,58z"/>
   <ellipse class="fil2" cx="19848" cy="1694" rx="46" ry="36"/>
  </g>
  <g id="_1103400560">
   <path class="fil1" d="M26404 306c-53,-162 283,-192 127,-47 -62,57 124,-53 137,42 6,40 -95,40 -27,40 55,0 84,47 28,70 -76,30 -105,-27 -126,-38 19,-24 25,83 -52,79 -31,-2 -65,-63 -46,-71 36,22 -197,88 -155,-13 15,-37 122,-13 52,-17 -26,-2 -82,-87 -35,-84 4,-30 94,31 97,39z"/>
   <ellipse class="fil2" cx="26484" cy="326" rx="31" ry="24"/>
  </g>
  <g id="_1103372880">
   <path class="fil1" d="M13682 743c-47,-144 254,-172 114,-42 -56,52 111,-47 123,38 5,36 -86,36 -25,36 50,0 76,42 26,62 -68,28 -95,-23 -113,-34 16,-21 22,75 -47,71 -28,-1 -58,-57 -41,-63 32,19 -177,78 -139,-12 14,-34 109,-12 47,-15 -23,-2 -74,-78 -31,-75 3,-27 84,27 86,34z"/>
   <ellipse class="fil2" cx="13754" cy="762" rx="27" ry="21"/>
  </g>
 </g>
</svg>
