<?xml version="1.0" encoding="UTF-8"?>
<!DOCTYPE svg PUBLIC "-//W3C//DTD SVG 1.1//EN" "http://www.w3.org/Graphics/SVG/1.1/DTD/svg11.dtd">
<!-- Creator: CorelDRAW X7 -->
<svg xmlns="http://www.w3.org/2000/svg" xml:space="preserve" width="202.218mm" height="44.7391mm" version="1.1" style="shape-rendering:geometricPrecision; text-rendering:geometricPrecision; image-rendering:optimizeQuality; fill-rule:evenodd; clip-rule:evenodd"
viewBox="0 0 19395 4291"
 xmlns:xlink="http://www.w3.org/1999/xlink">
 <defs>
  <style type="text/css">
   <![CDATA[
    .fil0 {fill:#BEE6E2}
   ]]>
  </style>
 </defs>
 <g id="Слой_x0020_1">
  <metadata id="CorelCorpID_0Corel-Layer"/>
  <path class="fil0" d="M312 2516c-195,-208 -312,-471 -312,-758 0,-672 644,-1217 1439,-1217 30,0 60,1 90,3 150,-319 518,-544 948,-544 440,0 814,235 958,565 271,3 508,123 646,302 222,-194 533,-314 877,-314 674,0 1221,462 1221,1032 0,284 -137,542 -357,729 -205,252 -528,340 -797,373 -4,36 -10,73 -19,109 -128,515 -730,826 -1344,694 -24,-5 -47,-10 -69,-17 -177,219 -504,331 -837,260 -340,-73 -585,-315 -633,-592 -209,-47 -370,-178 -443,-339 -208,112 -471,153 -738,96 -266,-57 -484,-202 -619,-388l-11 6z"/>
  <path class="fil0" d="M13529 3053c-195,-208 -312,-471 -312,-758 0,-672 644,-1217 1439,-1217 30,0 60,1 90,3 150,-319 518,-544 948,-544 440,0 814,235 958,565 271,3 508,123 646,302 222,-194 533,-314 877,-314 674,0 1220,462 1220,1032 0,284 -136,542 -356,729 -205,252 -528,340 -797,373 -4,36 -10,73 -19,109 -128,515 -730,826 -1344,694 -24,-5 -47,-10 -69,-17 -177,220 -504,331 -837,260 -340,-73 -585,-315 -633,-592 -209,-47 -370,-178 -443,-339 -208,112 -471,153 -738,96 -266,-57 -484,-202 -619,-388l-11 6z"/>
 </g>
</svg>
