<?xml version="1.0" encoding="UTF-8"?>
<!DOCTYPE svg PUBLIC "-//W3C//DTD SVG 1.1//EN" "http://www.w3.org/Graphics/SVG/1.1/DTD/svg11.dtd">
<!-- Creator: CorelDRAW X7 -->
<svg xmlns="http://www.w3.org/2000/svg" xml:space="preserve" width="387.469mm" height="32.9661mm" version="1.1" style="shape-rendering:geometricPrecision; text-rendering:geometricPrecision; image-rendering:optimizeQuality; fill-rule:evenodd; clip-rule:evenodd"
viewBox="0 0 145005 12337"
 xmlns:xlink="http://www.w3.org/1999/xlink">
 <defs>
  <style type="text/css">
   <![CDATA[
    .fil0 {fill:#BEE6E2}
   ]]>
  </style>
 </defs>
 <g id="Слой_x0020_1">
  <metadata id="CorelCorpID_0Corel-Layer"/>
  <path class="fil0" d="M898 7233c-562,-598 -898,-1354 -898,-2177 0,-1933 1852,-3500 4137,-3500 87,0 173,2 259,7 432,-916 1490,-1563 2726,-1563 1264,0 2341,676 2754,1623 778,11 1461,354 1858,870 638,-558 1532,-904 2522,-904 1937,0 3508,1328 3508,2967 0,819 -392,1560 -1025,2097 -589,725 -1517,978 -2291,1072 -11,105 -29,210 -56,315 -367,1480 -2097,2374 -3864,1995 -67,-15 -134,-31 -199,-49 -508,630 -1449,950 -2405,745 -977,-209 -1681,-905 -1821,-1700 -600,-137 -1063,-513 -1272,-974 -599,321 -1356,439 -2121,275 -767,-165 -1394,-580 -1781,-1115l-31 16z"/>
  <path class="fil0" d="M128139 7233c-562,-598 -898,-1354 -898,-2177 0,-1933 1852,-3500 4137,-3500 87,0 174,2 259,7 432,-916 1490,-1563 2726,-1563 1264,0 2341,676 2754,1623 779,11 1462,354 1859,870 637,-558 1531,-904 2521,-904 1937,0 3508,1328 3508,2967 0,819 -392,1560 -1025,2097 -589,725 -1517,978 -2291,1072 -11,105 -29,210 -55,315 -368,1480 -2098,2374 -3865,1995 -67,-15 -133,-31 -199,-49 -508,630 -1449,950 -2405,745 -977,-209 -1681,-905 -1821,-1700 -600,-137 -1063,-513 -1272,-974 -599,321 -1356,439 -2121,275 -767,-165 -1394,-580 -1781,-1115l-31 16z"/>
  <path class="fil0" d="M80486 8777c562,-598 898,-1354 898,-2177 0,-1933 -1852,-3500 -4137,-3500 -87,0 -173,2 -259,7 -432,-916 -1489,-1563 -2726,-1563 -1263,0 -2340,676 -2753,1623 -779,11 -1462,354 -1859,870 -638,-558 -1532,-904 -2521,-904 -1938,0 -3508,1328 -3508,2967 0,819 391,1560 1025,2097 588,725 1517,978 2290,1072 11,105 30,210 56,315 367,1480 2097,2374 3864,1995 68,-15 134,-31 199,-49 508,630 1449,950 2405,745 977,-209 1682,-905 1821,-1700 600,-137 1063,-513 1272,-974 599,321 1356,439 2122,275 767,-165 1393,-580 1780,-1115l31 16z"/>
 </g>
</svg>
