<?xml version="1.0" encoding="UTF-8"?>
<!DOCTYPE svg PUBLIC "-//W3C//DTD SVG 1.1//EN" "http://www.w3.org/Graphics/SVG/1.1/DTD/svg11.dtd">
<!-- Creator: CorelDRAW X7 -->
<svg xmlns="http://www.w3.org/2000/svg" xml:space="preserve" width="197.297mm" height="39.4106mm" version="1.1" style="shape-rendering:geometricPrecision; text-rendering:geometricPrecision; image-rendering:optimizeQuality; fill-rule:evenodd; clip-rule:evenodd"
viewBox="0 0 19088 3813"
 xmlns:xlink="http://www.w3.org/1999/xlink">
 <defs>
  <style type="text/css">
   <![CDATA[
    .fil0 {fill:#BEE6E2}
   ]]>
  </style>
 </defs>
 <g id="Слой_x0020_1">
  <metadata id="CorelCorpID_0Corel-Layer"/>
  <path class="fil0" d="M13124 2404c-185,-221 -287,-493 -269,-781 40,-677 722,-1187 1522,-1139 31,2 61,5 91,8 170,-311 554,-516 987,-490 443,27 806,286 931,627 272,20 504,154 632,343 235,-181 556,-284 902,-263 679,40 1201,539 1166,1113 -17,286 -170,538 -403,712 -221,242 -552,311 -824,328 -7,36 -15,73 -27,109 -159,511 -784,787 -1395,617 -23,-6 -46,-13 -69,-21 -191,210 -527,302 -858,210 -337,-94 -569,-352 -601,-633 -208,-61 -362,-203 -425,-368 -217,100 -485,125 -749,51 -265,-73 -476,-232 -600,-428l-11 5z"/>
  <path class="fil0" d="M6371 2296c-147,-126 -246,-296 -267,-490 -49,-456 347,-872 886,-931 20,-2 41,-4 61,-5 79,-227 311,-406 603,-438 298,-32 569,100 690,313 184,-18 354,46 461,157 136,-148 337,-252 571,-277 456,-50 861,223 902,609 21,193 -52,378 -188,521 -120,186 -332,269 -512,311 0,25 -2,50 -5,76 -49,358 -434,613 -860,569 -16,-2 -32,-4 -48,-7 -104,162 -318,261 -548,237 -236,-24 -420,-170 -473,-354 -145,-17 -263,-94 -324,-197 -134,91 -309,138 -494,119 -185,-19 -343,-101 -448,-217l-7 4z"/>
  <path class="fil0" d="M166 2061c-125,-174 -187,-381 -160,-594 65,-500 597,-843 1188,-767 23,3 45,7 67,11 142,-223 438,-355 757,-313 327,42 583,253 658,512 202,29 367,141 452,287 184,-123 427,-182 683,-149 501,65 863,461 808,885 -27,212 -154,390 -335,508 -177,168 -426,202 -629,201 -6,26 -15,53 -25,79 -145,371 -622,544 -1067,387 -16,-6 -33,-12 -49,-19 -153,146 -407,197 -648,112 -245,-87 -404,-290 -414,-501 -150,-55 -257,-168 -296,-294 -166,63 -366,68 -558,0 -193,-69 -341,-197 -423,-348l-9 3z"/>
 </g>
</svg>
