<?xml version="1.0" encoding="UTF-8"?>
<!DOCTYPE svg PUBLIC "-//W3C//DTD SVG 1.1//EN" "http://www.w3.org/Graphics/SVG/1.1/DTD/svg11.dtd">
<!-- Creator: CorelDRAW X7 -->
<svg xmlns="http://www.w3.org/2000/svg" xml:space="preserve" width="202.218mm" height="44.7391mm" version="1.1" style="shape-rendering:geometricPrecision; text-rendering:geometricPrecision; image-rendering:optimizeQuality; fill-rule:evenodd; clip-rule:evenodd"
viewBox="0 0 33633 7441"
 xmlns:xlink="http://www.w3.org/1999/xlink">
 <defs>
  <style type="text/css">
   <![CDATA[
    .fil0 {fill:#BEE6E2}
   ]]>
  </style>
 </defs>
 <g id="Слой_x0020_1">
  <metadata id="CorelCorpID_0Corel-Layer"/>
  <path class="fil0" d="M542 4362c-339,-360 -542,-816 -542,-1313 0,-1166 1117,-2111 2495,-2111 53,0 105,2 156,4 261,-552 899,-942 1645,-942 762,0 1411,408 1660,979 470,6 882,214 1121,525 385,-337 924,-546 1521,-546 1169,0 2116,802 2116,1790 0,494 -236,941 -618,1265 -355,437 -915,590 -1382,646 -7,63 -18,127 -33,190 -222,893 -1266,1432 -2331,1203 -41,-8 -81,-18 -120,-29 -307,380 -874,573 -1451,449 -589,-126 -1014,-546 -1098,-1025 -362,-83 -641,-310 -767,-588 -362,194 -818,265 -1280,166 -462,-99 -840,-350 -1074,-672l-18 9z"/>
  <path class="fil0" d="M23460 5294c-339,-361 -541,-817 -541,-1314 0,-1165 1117,-2110 2495,-2110 52,0 105,1 156,4 261,-553 899,-943 1644,-943 762,0 1412,408 1661,979 470,7 882,214 1121,525 385,-336 924,-546 1521,-546 1168,0 2116,802 2116,1790 0,494 -237,941 -619,1265 -354,437 -915,590 -1381,646 -7,64 -18,127 -34,190 -221,893 -1265,1432 -2330,1204 -41,-9 -81,-19 -120,-30 -307,380 -874,573 -1451,450 -589,-127 -1014,-547 -1098,-1026 -362,-82 -641,-309 -767,-587 -362,194 -818,264 -1280,165 -463,-99 -840,-349 -1074,-672l-19 10z"/>
 </g>
</svg>
