<?xml version="1.0" encoding="UTF-8"?>
<!DOCTYPE svg PUBLIC "-//W3C//DTD SVG 1.1//EN" "http://www.w3.org/Graphics/SVG/1.1/DTD/svg11.dtd">
<!-- Creator: CorelDRAW X7 -->
<svg xmlns="http://www.w3.org/2000/svg" xml:space="preserve" width="338.69mm" height="44.7391mm" version="1.1" style="shape-rendering:geometricPrecision; text-rendering:geometricPrecision; image-rendering:optimizeQuality; fill-rule:evenodd; clip-rule:evenodd"
viewBox="0 0 94346 12463"
 xmlns:xlink="http://www.w3.org/1999/xlink">
 <defs>
  <style type="text/css">
   <![CDATA[
    .fil0 {fill:#BEE6E2}
   ]]>
  </style>
 </defs>
 <g id="Слой_x0020_1">
  <metadata id="CorelCorpID_0Corel-Layer"/>
  <path class="fil0" d="M907 7307c-568,-604 -907,-1368 -907,-2200 0,-1953 1871,-3536 4179,-3536 88,0 175,3 262,8 436,-925 1505,-1579 2754,-1579 1276,0 2364,683 2781,1640 787,10 1477,358 1878,878 644,-563 1547,-913 2547,-913 1957,0 3543,1342 3543,2998 0,827 -395,1575 -1035,2117 -594,733 -1532,989 -2314,1083 -11,106 -30,212 -56,319 -371,1495 -2119,2398 -3904,2015 -68,-15 -135,-31 -201,-49 -513,636 -1463,960 -2429,753 -987,-212 -1699,-915 -1840,-1718 -606,-138 -1073,-519 -1285,-984 -605,325 -1370,443 -2143,278 -775,-167 -1407,-586 -1798,-1126l-32 16z"/>
  <path class="fil0" d="M77309 7307c-568,-604 -907,-1368 -907,-2200 0,-1953 1871,-3536 4179,-3536 88,0 175,3 262,8 436,-925 1505,-1579 2754,-1579 1276,0 2364,683 2781,1640 787,10 1477,358 1878,878 644,-563 1547,-913 2547,-913 1957,0 3543,1342 3543,2998 0,827 -395,1575 -1035,2117 -594,733 -1533,989 -2314,1083 -11,106 -30,212 -56,319 -371,1495 -2119,2398 -3904,2015 -68,-15 -135,-31 -201,-49 -513,636 -1464,960 -2429,753 -987,-212 -1699,-915 -1840,-1718 -606,-138 -1074,-519 -1285,-984 -605,325 -1370,443 -2143,278 -775,-167 -1407,-586 -1798,-1126l-32 16z"/>
  <path class="fil0" d="M55053 8866c568,-603 907,-1368 907,-2199 0,-1953 -1871,-3536 -4179,-3536 -88,0 -175,3 -262,7 -436,-925 -1504,-1578 -2753,-1578 -1277,0 -2364,682 -2782,1639 -786,11 -1476,358 -1878,879 -644,-563 -1547,-913 -2546,-913 -1957,0 -3544,1342 -3544,2997 0,827 396,1576 1035,2118 595,733 1533,989 2314,1083 11,106 30,212 56,318 372,1496 2119,2398 3904,2016 68,-15 135,-31 201,-49 513,636 1464,959 2430,752 987,-211 1698,-915 1839,-1717 606,-139 1074,-519 1285,-984 605,324 1370,443 2143,277 775,-166 1408,-585 1799,-1126l31 16z"/>
 </g>
</svg>
