<?xml version="1.0" encoding="UTF-8"?>
<!DOCTYPE svg PUBLIC "-//W3C//DTD SVG 1.1//EN" "http://www.w3.org/Graphics/SVG/1.1/DTD/svg11.dtd">
<!-- Creator: CorelDRAW X7 -->
<svg xmlns="http://www.w3.org/2000/svg" xml:space="preserve" width="341.336mm" height="44.7391mm" version="1.1" style="shape-rendering:geometricPrecision; text-rendering:geometricPrecision; image-rendering:optimizeQuality; fill-rule:evenodd; clip-rule:evenodd"
viewBox="0 0 55262 7243"
 xmlns:xlink="http://www.w3.org/1999/xlink">
 <defs>
  <style type="text/css">
   <![CDATA[
    .fil0 {fill:#BEE6E2}
   ]]>
  </style>
 </defs>
 <g id="Слой_x0020_1">
  <metadata id="CorelCorpID_0Corel-Layer"/>
  <path class="fil0" d="M527 4247c-330,-351 -527,-796 -527,-1279 0,-1135 1087,-2055 2429,-2055 51,0 102,2 152,4 254,-537 875,-917 1600,-917 742,0 1375,397 1617,953 457,6 858,208 1091,511 375,-328 900,-531 1481,-531 1137,0 2059,780 2059,1742 0,481 -230,916 -602,1231 -345,426 -890,574 -1344,629 -7,62 -18,124 -33,185 -216,869 -1232,1394 -2269,1171 -39,-8 -78,-18 -117,-28 -298,370 -850,558 -1412,437 -573,-123 -987,-531 -1069,-998 -352,-80 -624,-301 -747,-572 -351,189 -796,258 -1245,162 -451,-97 -818,-341 -1045,-655l-19 10z"/>
  <path class="fil0" d="M22837 5153c-330,-351 -527,-795 -527,-1278 0,-1135 1087,-2055 2428,-2055 52,0 102,1 153,4 253,-538 874,-918 1600,-918 742,0 1374,397 1617,953 457,7 858,208 1091,511 374,-327 899,-531 1480,-531 1138,0 2060,780 2060,1743 0,480 -230,915 -602,1230 -346,426 -891,575 -1345,630 -6,61 -17,123 -33,185 -215,869 -1231,1393 -2268,1171 -40,-9 -79,-18 -117,-28 -298,369 -851,557 -1412,437 -574,-123 -987,-532 -1069,-998 -353,-81 -624,-302 -747,-572 -352,188 -796,257 -1246,161 -450,-96 -818,-340 -1045,-654l-18 9z"/>
  <path class="fil0" d="M45360 5153c-330,-351 -528,-795 -528,-1278 0,-1135 1088,-2055 2429,-2055 51,0 102,1 152,4 254,-538 875,-918 1601,-918 742,0 1374,397 1616,953 458,7 859,208 1092,511 374,-327 899,-531 1480,-531 1137,0 2060,780 2060,1743 0,480 -230,915 -602,1230 -346,426 -891,575 -1345,630 -7,61 -17,123 -33,185 -215,869 -1231,1393 -2269,1171 -39,-9 -78,-18 -116,-28 -299,369 -851,557 -1412,437 -574,-123 -987,-532 -1069,-998 -353,-81 -624,-302 -747,-572 -352,188 -796,257 -1246,161 -450,-96 -818,-340 -1045,-654l-18 9z"/>
 </g>
</svg>
