<?xml version="1.0" encoding="UTF-8"?>
<!DOCTYPE svg PUBLIC "-//W3C//DTD SVG 1.1//EN" "http://www.w3.org/Graphics/SVG/1.1/DTD/svg11.dtd">
<!-- Creator: CorelDRAW X7 -->
<svg xmlns="http://www.w3.org/2000/svg" xml:space="preserve" width="570.632mm" height="36.5496mm" version="1.1" style="shape-rendering:geometricPrecision; text-rendering:geometricPrecision; image-rendering:optimizeQuality; fill-rule:evenodd; clip-rule:evenodd"
viewBox="0 0 56999 3651"
 xmlns:xlink="http://www.w3.org/1999/xlink">
 <defs>
  <style type="text/css">
   <![CDATA[
    .fil1 {fill:#027218}
    .fil0 {fill:#02B027}
   ]]>
  </style>
 </defs>
 <g id="Слой_x0020_1">
  <metadata id="CorelCorpID_0Corel-Layer"/>
  <g id="_1103389776">
   <path class="fil0" d="M19017 873l0 38c89,-53 167,-284 267,-20 73,190 19,171 219,-44 57,-62 105,0 99,114 0,1 72,206 122,-4 17,-71 137,-176 188,98 67,359 340,343 198,-34 -49,-132 259,-230 250,-25 -5,98 192,-251 259,-50 28,86 -86,27 66,138 29,21 59,788 187,253 7,-31 -4,-371 131,-198 46,58 -3,598 94,267 156,-534 153,-119 207,-157 97,-68 140,-243 200,-12 16,62 103,-131 68,232 -1,20 194,411 197,-13 1,-159 301,-178 285,5 -13,146 156,329 120,-30 -10,-95 232,-24 173,94 -27,55 107,-85 198,-99 124,-19 38,-260 238,22 34,47 40,426 248,369 110,-30 -118,-337 137,-106 65,60 196,-187 196,64 0,-195 147,-261 367,-285 58,-6 -61,255 -21,371 94,271 276,363 160,74 -25,-62 108,-250 208,-97 8,13 146,-112 228,111 17,45 102,142 149,259 14,34 201,135 129,-50 -14,-35 226,-173 252,-31 20,112 184,-403 418,16 183,327 339,103 101,-34 57,-117 261,124 261,-46 0,-56 -63,-45 187,-60 144,-8 -10,151 82,110 44,-20 415,22 131,94 -222,56 -63,387 -10,146 21,-94 52,11 111,-16 11,-6 175,54 141,-6 -12,-3 -12,-1 -23,-4 110,13 62,-126 171,-23 65,60 -112,66 78,74 2,1 -6,170 116,129 23,-7 149,135 139,-17 0,-1 78,-156 164,-46 124,157 129,-122 242,43 43,63 63,17 74,97 10,74 135,17 206,126 15,23 217,130 118,-31 -59,-96 78,-15 -158,-189 -115,-84 215,-122 398,165 97,154 110,-98 53,-103 103,10 53,62 67,-46 0,-2 267,-374 243,-94 -8,97 276,-148 269,-65 0,1 -259,211 -122,258 15,-3 314,-228 276,-75 -10,39 -147,79 30,54 90,-13 -62,52 10,77 13,5 110,197 139,71 15,-66 -61,-81 97,-96 51,-5 86,-224 -80,-306 -263,-130 402,53 274,207 -22,27 136,-83 12,-193 -139,-124 107,-233 121,-108 11,89 155,95 153,285 2,-308 154,-226 91,-147 -65,82 180,-63 32,186 -57,97 125,104 138,17 21,-147 395,-182 215,-39 -123,97 36,45 -52,147 -57,66 306,-7 309,-46 6,-80 49,-11 49,27 0,204 111,225 225,18 97,-176 -124,-39 238,-117 118,-26 -6,49 89,113 8,6 -13,26 10,57 5,59 93,11 160,31 28,9 481,27 141,-107 -134,-53 -42,-144 218,-80 115,29 -196,-248 94,-151 78,26 -42,-95 177,-69 84,9 403,-386 373,-61 -7,72 104,5 166,110 16,27 15,-6 102,33 97,43 -105,-214 78,-48 68,62 121,-120 79,-190 -28,-45 85,-264 112,-31 11,94 113,4 84,-77 -7,-19 186,-292 186,-192 0,1 -6,305 67,224 11,-12 71,-210 124,-138 3,4 -101,199 55,221 55,-34 47,-212 152,-161 7,3 40,209 154,57 14,-19 -4,-106 76,-15 35,39 -156,75 -55,234 276,32 -21,-397 217,-370 21,46 -5,251 156,138 48,-34 -40,-179 168,-92 61,26 96,-259 230,100 52,139 114,-223 153,-226 15,42 49,-51 15,127 -17,88 106,28 99,-30 45,-5 34,12 25,32 13,-53 67,-139 131,-60 1,1 110,282 171,156 23,-46 -162,-334 122,-180 352,190 -17,-46 259,-271 74,-61 18,227 86,51 97,-255 171,404 422,72 75,-99 -236,-77 -55,-353 65,-98 61,150 82,-29 0,-4 107,-184 173,-101 27,-57 6,-110 132,-146 60,44 -92,391 100,65 63,-105 243,-115 79,13 -23,18 -10,259 116,-109 40,-119 165,-142 62,147 -53,150 172,522 113,103 -3,-22 15,-149 25,-175 112,-28 6,45 104,-154 132,-265 67,-168 84,-23 0,0 103,117 97,-71 -5,-176 124,-63 112,21 297,-126 6,-197 166,-197 15,-1 -15,141 19,210 25,51 -5,439 164,68 12,-27 172,-610 133,-208 -13,135 103,173 112,8 9,-150 90,-113 286,-287 25,-22 -72,541 -17,525 2,0 129,22 131,22 -101,-372 99,-294 114,-319 71,-113 61,-170 75,-209 15,-9 83,65 144,-50 0,-1 2,31 4,79 71,-82 138,-204 220,19 73,197 19,178 219,-49 57,-64 105,1 99,118 0,1 72,213 122,-6 17,-74 136,-185 189,99 69,374 342,355 198,-39 -51,-136 258,-243 249,-28 -4,102 191,-266 259,-55 29,88 -86,28 67,143 28,21 64,824 187,263 7,-33 -4,-388 131,-208 45,60 -1,625 93,278 152,-560 154,-125 208,-165 97,-71 140,-255 200,-14 16,66 103,-138 69,244 -2,20 197,430 196,-16 -1,-166 301,-188 286,4 -13,153 159,343 120,-34 -11,-100 231,-30 173,95 -27,58 106,-93 198,-111 124,-25 35,-276 238,14 33,47 44,450 248,378 110,-39 -118,-353 137,-123 65,59 196,-218 196,54 0,-211 147,-299 366,-352 59,-15 -60,287 -19,410 96,291 279,374 160,66 -26,-66 108,-293 207,-137 9,14 147,-148 229,94 17,49 104,147 152,277 15,37 202,131 130,-75 -14,-40 220,-240 248,-76 21,130 185,-520 419,-49 187,377 341,70 103,-63 57,-158 261,113 261,-106 0,-71 -62,-44 186,-113 148,-41 -9,198 82,126 44,-35 417,-51 132,98 -224,116 -62,525 -10,197 21,-130 52,6 111,-40 11,-9 175,47 141,-29 -12,-3 -12,-1 -23,-2 110,0 63,-184 171,-61 65,73 -112,109 78,90 2,1 -5,238 116,162 22,-14 151,172 139,-43 0,-1 78,-234 164,-88 126,212 129,-196 242,30 44,87 63,15 74,133 11,109 137,11 208,168 15,33 220,179 118,-57 -59,-138 79,-29 -160,-268 -113,-114 217,-208 400,211 101,230 109,-159 52,-163 103,10 55,93 66,-75 0,-2 268,-597 244,-161 -8,151 278,-251 271,-120 0,1 -261,346 -124,410 15,-5 313,-372 278,-129 -9,62 -149,129 30,83 90,-22 -63,85 10,122 13,7 112,306 139,108 15,-106 -61,-127 97,-156 52,-10 81,-358 -84,-480 -259,-192 403,67 278,316 -22,44 133,-136 8,-307 -138,-189 108,-375 122,-177 10,143 154,147 156,450 -2,-492 151,-368 88,-239 -65,134 181,-108 36,297 -57,157 126,163 137,23 19,-237 393,-304 215,-69 -121,160 37,71 -51,238 -57,108 306,-19 309,-81 6,-129 49,-19 49,42 2,331 112,362 225,25 96,-287 -124,-61 238,-193 118,-43 -5,80 90,183 8,8 -14,42 9,92 6,95 93,16 160,49 28,14 482,41 141,-177 -133,-85 -42,-234 219,-129 115,46 -201,-405 90,-247 81,44 -42,-155 177,-113 84,17 403,-622 375,-94 -6,118 104,11 166,183 16,44 15,-11 103,54 97,72 -106,-348 78,-74 67,100 121,-193 78,-307 -28,-74 84,-426 112,-47 12,153 115,13 84,-120 -7,-32 185,-460 185,-299 0,2 -4,490 68,365 11,-19 70,-333 122,-215 3,6 -99,313 58,356 55,-51 44,-336 152,-248 7,5 40,335 154,102 14,-27 -5,-167 76,-16 35,64 -156,106 -55,366 276,69 -23,-632 217,-565 21,72 -5,392 157,228 48,-49 -40,-284 167,-127 62,46 96,-390 231,181 52,219 114,-327 152,-327 15,66 50,-72 15,196 -17,132 107,54 99,-34 46,-2 35,22 25,50 13,-78 68,-200 132,-72 0,2 109,439 171,260 22,-65 -165,-523 122,-248 350,336 -18,-72 259,-352 73,-74 17,333 86,91 97,-342 170,614 423,195 73,-121 -238,-160 -56,-506 64,-121 62,226 82,-19 1,-6 107,-228 174,-92 26,-69 5,-148 131,-154 61,79 -93,503 101,123 62,-122 242,-76 78,41 -23,16 -9,341 116,-108 40,-143 165,-123 63,214 -54,180 172,731 113,174 -4,-30 15,-186 24,-215 113,8 5,58 105,-155 131,-279 67,-184 84,4 0,1 103,188 97,-48 -5,-220 124,-28 112,72 298,-7 6,-240 166,-160 15,7 -15,163 19,262 25,73 -4,520 164,158 13,-27 172,-616 133,-178 -13,149 104,249 113,70 8,-163 89,-73 285,-144 25,-9 -72,536 -17,548 2,0 130,89 132,91 -101,-446 98,-239 114,-254 70,-67 61,-129 74,-159 16,1 84,119 145,47 0,-1 27,485 0,451 0,426 0,852 0,1278 0,426 0,852 0,1277 -3166,0 -6332,0 -9498,0l-9472 0 0 161c-3166,0 -6332,0 -9498,0 -3166,0 -6332,0 -9498,0 -2,-313 -5,-627 -7,-940 -2,260 -4,520 -6,779 -3166,0 -6332,0 -9498,0 -3166,0 -6332,0 -9498,0 0,-425 0,-851 0,-1277 0,-426 0,-851 0,-1278 -27,35 0,-452 0,-451 61,73 129,-46 145,-46 13,29 4,92 74,159 16,15 215,-192 114,254 2,-2 129,-91 131,-91 56,-12 -41,-557 -17,-548 197,69 278,-20 286,143 9,179 125,78 112,-69 -38,-439 121,150 133,176 169,363 139,-84 164,-157 34,-99 4,-255 19,-262 160,-80 -131,153 166,160 -12,-100 118,-292 112,-72 -6,236 97,49 97,48 17,-188 -47,-283 84,-4 100,213 -8,164 105,155 9,29 28,185 24,215 -59,557 167,5 113,-174 -102,-336 23,-356 63,-214 125,448 138,125 116,108 -164,-117 16,-163 78,-41 193,380 40,-44 101,-123 125,6 104,85 131,154 67,-136 173,86 173,92 21,245 18,-102 82,19 182,347 -128,384 -55,506 252,419 326,-537 423,-196 68,242 12,-164 85,-90 277,280 -91,688 259,352 286,-274 100,183 122,248 61,178 170,-258 171,-260 64,-128 118,-6 132,72 -10,-28 -21,-52 24,-50 -7,88 116,166 99,34 -34,-268 0,-130 16,-196 38,-1 100,546 152,326 135,-570 169,-134 230,-180 207,-157 120,78 168,126 162,165 135,-155 156,-227 238,-66 -59,633 217,565 101,-260 -89,-302 -55,-366 80,-151 62,-11 76,16 114,233 147,-97 154,-103 106,-87 97,198 152,249 157,-43 53,-350 56,-356 52,-119 113,195 123,214 73,126 67,-362 67,-364 0,-161 194,267 187,299 -30,132 72,273 83,119 27,-377 140,-27 113,47 -43,115 10,408 78,307 183,-274 -19,146 78,75 87,-65 86,-10 103,-55 62,-171 172,-65 165,-182 -29,-528 289,111 373,94 219,-42 99,155 177,112 290,-158 -21,294 94,248 260,-105 351,43 219,128 -342,219 112,191 141,177 66,-33 154,46 159,-48 23,-51 2,-84 10,-93 95,-102 -28,-226 89,-183 362,132 141,-94 238,194 114,336 225,305 225,-26 0,-61 43,-171 50,-42 3,63 365,189 308,81 -88,-167 71,-78 -51,-238 -181,-235 193,-167 215,70 12,139 195,134 137,-24 -148,-405 97,-163 32,-296 -63,-129 90,-253 92,239 -2,-304 141,-307 152,-450 14,-199 259,-12 122,176 -125,172 34,351 11,308 -128,-250 535,-509 274,-316 -165,122 -131,470 -80,479 158,30 82,51 97,156 29,198 126,-101 139,-107 73,-38 -80,-145 10,-122 177,46 40,-21 30,-84 -38,-242 261,124 276,130 137,-65 -123,-409 -123,-411 -8,-130 279,271 270,120 -25,-436 243,159 244,161 13,168 -37,85 66,76 -57,4 -46,392 54,162 180,-419 510,-324 397,-211 -237,239 -99,131 -158,269 -99,235 104,89 118,56 71,-156 196,-59 206,-168 11,-117 31,-46 74,-133 113,-226 118,182 242,-30 85,-146 164,87 164,88 -10,215 117,30 139,44 123,75 114,-161 116,-162 190,19 13,-17 78,-91 108,-122 61,62 171,61 -11,2 -11,0 -22,2 -35,77 129,20 140,29 60,46 90,-90 111,40 53,328 213,-81 -10,-197 -285,-148 88,-132 132,-98 91,72 -66,-167 82,-126 248,70 186,44 186,115 0,218 204,-51 261,107 -238,131 -85,438 101,64 231,-467 399,183 419,54 25,-163 265,40 251,79 -72,204 115,115 129,77 47,-126 132,-222 149,-270 82,-236 220,-72 228,-85 100,-151 233,77 208,140 -116,300 66,223 160,-57 40,-120 -79,-419 -21,-403 220,63 367,155 367,360 0,-264 131,11 196,-43 255,-209 26,83 137,126 207,79 214,-308 248,-352 201,-264 114,-30 238,0 91,23 225,173 198,117 -59,-122 183,-176 173,-81 -36,353 133,183 120,38 -16,-182 285,-147 286,9 2,416 198,41 196,22 -35,-358 52,-164 68,-225 60,-222 104,-50 200,20 54,39 51,-364 208,160 96,323 47,-202 93,-257 135,-162 124,166 131,197 128,519 159,-221 187,-240 152,-104 38,-50 67,-132 66,-192 263,149 258,55 -9,-198 299,-97 250,29 -141,360 131,379 198,36 51,-262 171,-159 188,-91 50,202 122,7 122,6 -6,-109 42,-168 99,-110 200,208 147,226 219,45 103,-258 181,-21 272,23z"/>
   <path class="fil1" d="M19017 1034l0 27c89,-50 167,-269 267,-19 73,180 19,162 219,-42 57,-58 105,1 99,108 0,1 72,195 122,-4 17,-67 137,-166 188,93 67,340 340,324 198,-33 -49,-124 259,-217 250,-22 -5,92 192,-238 259,-48 28,81 -86,26 66,130 29,20 59,745 187,240 7,-30 -4,-351 131,-187 46,55 -3,564 94,252 156,-504 153,-113 207,-149 97,-64 140,-229 200,-11 16,59 103,-124 68,220 -1,19 194,388 197,-13 1,-150 301,-168 285,5 -13,138 156,310 120,-28 -10,-91 232,-23 173,89 -27,51 107,-81 198,-94 124,-18 38,-246 238,21 34,44 40,402 248,348 110,-28 -118,-318 137,-100 65,57 196,-176 196,61 0,-185 147,-247 367,-270 58,-5 -61,241 -21,351 94,256 276,344 160,70 -25,-59 108,-237 208,-92 8,13 146,-105 228,105 17,43 102,134 149,244 14,33 201,128 129,-46 -14,-33 226,-164 252,-29 20,105 184,-382 418,15 183,309 339,97 101,-33 57,-110 261,117 261,-43 0,-53 -63,-43 187,-57 144,-8 -10,143 82,104 44,-19 415,21 131,89 -222,53 -63,366 -10,138 21,-89 52,11 111,-16 11,-5 175,52 141,-4 -12,-4 -12,-2 -23,-4 110,12 62,-120 171,-23 65,58 -112,63 78,71 2,1 -6,160 116,122 23,-7 149,127 139,-16 0,-1 78,-148 164,-44 124,149 129,-116 242,41 43,60 63,16 74,92 10,70 135,15 206,118 15,22 217,123 118,-29 -59,-90 78,-14 -158,-178 -115,-80 215,-116 398,156 97,145 110,-93 53,-98 103,10 53,59 67,-44 0,-1 267,-353 243,-88 -8,92 276,-140 269,-62 0,1 -259,200 -122,244 15,-2 314,-216 276,-71 -10,37 -147,75 30,51 90,-12 -62,49 10,73 13,5 110,186 139,67 15,-62 -61,-76 97,-91 51,-5 86,-211 -80,-289 -263,-123 402,50 274,196 -22,26 136,-78 12,-183 -139,-116 107,-220 121,-102 11,85 155,90 153,270 2,-291 154,-214 91,-139 -65,77 180,-60 32,176 -57,91 125,98 138,16 21,-139 395,-173 215,-37 -123,92 36,42 -52,139 -57,62 306,-7 309,-44 6,-75 49,-10 49,26 0,193 111,213 225,17 97,-167 -124,-37 238,-111 118,-24 -6,47 89,108 8,5 -13,24 10,53 5,55 93,10 160,29 28,9 481,26 141,-101 -134,-50 -42,-136 218,-75 115,27 -196,-235 94,-143 78,24 -42,-90 177,-66 84,10 403,-364 373,-57 -7,68 104,5 166,104 16,26 15,-6 102,31 97,40 -105,-203 78,-45 68,58 121,-114 79,-180 -28,-43 85,-249 112,-29 11,89 113,4 84,-73 -7,-18 186,-276 186,-182 0,1 -6,289 67,213 11,-12 71,-199 124,-131 3,4 -101,188 55,209 55,-32 47,-200 152,-152 7,3 40,197 154,53 14,-17 -4,-100 76,-13 35,36 -156,70 -55,221 276,29 -21,-376 217,-350 21,43 -5,237 156,130 48,-32 -40,-169 168,-87 61,25 96,-245 230,94 52,132 114,-210 153,-213 15,40 49,-49 15,121 -17,82 106,25 99,-29 45,-5 34,11 25,30 13,-50 67,-131 131,-57 1,2 110,267 171,148 23,-44 -162,-316 122,-170 352,179 -17,-44 259,-257 74,-57 18,215 86,48 97,-240 171,383 422,69 75,-94 -236,-73 -55,-334 65,-93 61,142 82,-27 0,-4 107,-174 173,-96 27,-54 6,-104 132,-138 60,42 -92,370 100,62 63,-100 243,-109 79,12 -23,17 -10,245 116,-104 40,-112 165,-133 62,140 -53,141 172,493 113,97 -3,-21 15,-141 25,-165 112,-27 6,42 104,-146 132,-251 67,-159 84,-22 0,0 103,111 97,-67 -5,-166 124,-60 112,20 297,-119 6,-186 166,-186 15,-1 -15,134 19,199 25,47 -5,415 164,64 12,-26 172,-577 133,-197 -13,128 103,163 112,8 9,-142 90,-107 286,-272 25,-21 -72,512 -17,497 2,0 129,20 131,20 -101,-351 99,-278 114,-301 71,-107 61,-161 75,-197 15,-9 83,61 144,-48 0,0 1,13 2,34 71,-83 139,-211 222,17 73,200 19,180 219,-49 57,-65 105,0 99,119 0,1 72,216 122,-7 17,-74 136,-187 189,101 69,378 342,359 198,-39 -51,-139 258,-246 249,-28 -4,102 191,-270 259,-56 29,90 -86,28 67,146 28,21 64,834 187,266 7,-33 -4,-392 131,-210 46,61 -1,633 93,283 152,-566 154,-127 208,-167 97,-72 140,-257 200,-13 16,67 103,-138 69,247 -2,21 197,435 196,-15 -1,-167 301,-188 286,5 -13,155 159,348 120,-32 -11,-101 231,-29 173,97 -27,58 106,-93 198,-110 124,-24 35,-278 238,15 34,48 44,454 248,383 110,-39 -118,-355 137,-122 65,59 196,-218 196,55 0,-212 147,-299 366,-350 59,-14 -60,287 -19,411 96,292 279,376 160,67 -26,-66 107,-293 207,-135 9,13 147,-148 229,94 17,50 104,148 152,277 15,39 202,133 130,-74 -14,-40 220,-240 248,-75 21,130 185,-519 419,-48 187,377 341,70 103,-62 57,-158 261,112 261,-107 0,-71 -62,-44 186,-113 148,-40 -9,198 82,126 44,-34 418,-50 132,98 -223,116 -62,525 -10,197 21,-130 51,6 111,-40 11,-9 175,47 141,-29 -12,-2 -12,0 -23,-2 110,1 62,-183 171,-60 65,73 -112,109 78,90 2,0 -4,238 116,162 22,-14 151,171 139,-44 0,-1 78,-234 164,-88 126,213 129,-196 242,30 44,87 63,16 74,133 11,109 137,11 208,168 15,33 220,179 118,-57 -59,-138 79,-28 -160,-268 -113,-113 217,-208 400,211 101,230 109,-159 52,-163 103,10 53,92 66,-75 0,-1 268,-597 244,-161 -8,151 278,-250 271,-120 0,2 -261,346 -124,411 15,-6 313,-372 278,-130 -9,63 -148,130 30,84 90,-23 -63,84 10,122 13,6 112,306 139,107 14,-105 -61,-126 97,-156 52,-9 81,-357 -84,-479 -259,-193 403,66 278,316 -21,43 133,-137 8,-307 -138,-190 108,-376 122,-177 10,143 154,145 156,449 -2,-492 151,-368 88,-239 -65,134 181,-108 36,297 -57,158 126,164 137,24 19,-237 393,-305 215,-70 -121,161 37,71 -51,238 -57,108 306,-19 309,-81 6,-129 49,-19 49,42 2,331 112,363 225,25 96,-287 -124,-61 238,-193 118,-43 -6,80 90,183 7,9 -14,42 9,92 6,95 93,16 160,49 29,14 483,41 141,-177 -133,-85 -42,-233 219,-128 115,46 -201,-405 90,-248 80,44 -42,-154 177,-112 84,16 403,-623 375,-94 -6,117 104,11 166,182 16,44 15,-10 103,54 97,72 -106,-348 78,-74 67,101 121,-193 78,-307 -28,-74 84,-425 112,-47 12,154 115,13 84,-120 -7,-31 185,-459 185,-299 0,2 -4,491 68,365 12,-19 70,-333 122,-215 3,6 -99,313 58,357 55,-52 44,-337 152,-249 7,5 40,336 154,103 14,-28 -6,-168 76,-16 35,63 -156,106 -55,365 276,69 -23,-631 217,-565 21,72 -5,393 157,228 47,-49 -40,-283 167,-127 62,47 96,-389 231,181 52,220 114,-327 152,-327 15,66 50,-72 15,196 -17,132 107,55 99,-33 46,-3 35,21 25,50 13,-78 68,-201 132,-73 0,2 109,439 171,260 22,-65 -164,-522 122,-248 350,337 -18,-72 259,-351 73,-74 17,331 86,90 97,-342 170,614 423,195 73,-121 -238,-159 -56,-505 64,-122 62,225 82,-20 1,-6 107,-228 174,-92 26,-69 5,-148 131,-154 61,80 -93,503 101,123 62,-121 242,-76 78,41 -23,17 -9,341 116,-107 40,-144 165,-123 63,213 -54,179 172,731 113,175 -4,-31 15,-187 24,-216 113,9 5,58 105,-155 131,-278 67,-184 84,5 0,0 103,187 97,-49 -5,-220 124,-28 112,72 298,-7 6,-240 166,-160 15,8 -15,163 19,263 25,72 -5,520 164,157 12,-27 172,-616 133,-177 -13,148 104,248 113,69 8,-163 89,-74 285,-144 25,-9 -72,537 -17,548 2,1 130,89 132,91 -101,-446 98,-239 114,-254 70,-66 61,-129 74,-158 16,0 84,119 145,46 0,-1 27,486 0,452 0,425 0,852 0,1278 0,425 0,851 0,1277 -3166,0 -6332,0 -9498,0l-9472 0 -28 0 -9470 0c-3166,0 -6332,0 -9498,0 -2,-278 -4,-556 -6,-834 -2,278 -5,556 -7,834 -3166,0 -6332,0 -9498,0 -3166,0 -6332,0 -9498,0 0,-426 0,-852 0,-1277 0,-426 0,-852 0,-1278 -27,34 0,-453 0,-451 61,72 129,-47 145,-47 13,30 4,92 74,159 16,15 215,-192 114,254 2,-2 129,-90 131,-91 56,-11 -41,-557 -17,-548 197,70 278,-20 286,143 9,179 125,79 112,-69 -38,-439 121,150 133,176 169,364 139,-84 164,-157 34,-99 4,-254 19,-262 160,-80 -131,154 166,160 -12,-100 118,-292 112,-72 -6,236 97,49 97,49 17,-189 -47,-283 84,-5 100,214 -8,164 105,155 9,29 28,186 24,216 -59,557 167,5 113,-174 -102,-337 23,-357 63,-214 125,448 138,124 116,108 -164,-118 16,-163 78,-42 193,380 40,-43 101,-123 125,6 104,85 131,155 67,-137 173,85 173,91 21,245 18,-102 82,19 182,347 -128,385 -55,507 252,419 326,-538 423,-196 68,242 12,-164 85,-91 277,280 -91,688 259,352 286,-274 100,183 122,248 61,179 170,-258 171,-260 64,-128 118,-6 132,73 -10,-29 -21,-53 24,-50 -7,87 116,165 99,34 -34,-269 0,-131 16,-197 38,0 100,546 152,327 135,-570 169,-134 230,-181 207,-157 120,78 168,127 162,165 135,-156 156,-228 238,-66 -59,634 217,565 101,-259 -89,-301 -55,-365 80,-152 62,-12 76,15 114,234 147,-97 154,-102 106,-88 97,197 152,249 157,-43 53,-351 56,-356 52,-119 113,195 123,214 73,125 67,-363 67,-365 0,-161 194,268 187,299 -30,133 72,273 83,120 27,-378 140,-27 113,46 -43,115 10,409 78,308 183,-274 -19,146 78,74 87,-64 86,-10 103,-54 62,-172 172,-65 165,-182 -29,-529 289,110 373,94 219,-42 99,155 177,112 290,-158 -21,294 94,247 260,-105 351,44 219,129 -342,218 112,190 141,176 66,-32 154,47 159,-48 23,-50 2,-84 10,-92 95,-103 -28,-227 89,-184 362,133 141,-93 238,194 114,337 225,305 225,-25 0,-61 43,-171 50,-42 3,62 365,188 308,81 -88,-167 71,-78 -51,-238 -181,-236 193,-167 215,69 12,140 195,134 137,-24 -148,-404 97,-162 32,-296 -63,-129 90,-253 92,239 -2,-303 141,-307 152,-450 14,-198 259,-12 122,177 -125,171 34,351 11,307 -128,-250 535,-509 274,-316 -165,122 -131,470 -80,480 158,29 82,50 97,156 29,198 126,-101 139,-108 73,-37 -80,-144 10,-121 177,45 40,-22 30,-84 -38,-243 261,124 276,129 137,-64 -123,-409 -123,-410 -8,-131 279,271 270,119 -25,-435 243,160 244,162 13,167 -37,84 66,75 -57,4 -46,392 54,162 180,-419 510,-324 397,-211 -237,240 -99,131 -158,269 -99,236 104,90 118,57 71,-157 196,-59 206,-168 11,-117 31,-47 74,-134 113,-225 118,183 242,-30 85,-146 164,87 164,89 -10,215 117,29 139,43 123,76 114,-161 116,-162 190,19 13,-17 78,-90 108,-123 61,61 171,61 -11,1 -11,-1 -22,2 -35,76 129,20 140,28 60,46 90,-90 111,40 53,329 213,-80 -10,-196 -285,-149 88,-133 132,-98 91,72 -66,-168 82,-126 248,70 186,43 186,114 0,218 204,-50 261,108 -238,130 -85,437 101,63 231,-466 399,183 419,54 25,-163 265,41 251,80 -72,203 115,114 129,76 47,-126 132,-221 149,-269 82,-237 220,-72 228,-86 100,-151 233,77 208,141 -116,299 66,223 160,-58 40,-120 -79,-419 -21,-403 220,63 367,155 367,360 0,-264 131,12 196,-42 255,-209 26,82 137,125 207,79 214,-308 248,-352 201,-264 114,-29 238,1 91,22 225,172 198,116 -59,-122 183,-175 173,-81 -36,354 133,183 120,38 -16,-182 285,-147 286,9 2,417 198,41 196,22 -35,-357 52,-164 68,-225 60,-222 104,-49 200,20 54,39 51,-364 208,160 96,323 47,-201 93,-256 135,-163 124,165 131,196 128,520 159,-221 187,-240 152,-104 38,-50 67,-131 66,-193 263,148 258,55 -9,-199 299,-98 250,28 -141,361 131,380 198,36 51,-261 171,-159 188,-91 50,203 122,7 122,6 -6,-108 42,-168 99,-109 200,208 147,225 219,44 103,-257 181,-21 272,24z"/>
  </g>
 </g>
</svg>
