<?xml version="1.0" encoding="UTF-8"?>
<!DOCTYPE svg PUBLIC "-//W3C//DTD SVG 1.1//EN" "http://www.w3.org/Graphics/SVG/1.1/DTD/svg11.dtd">
<!-- Creator: CorelDRAW X7 -->
<svg xmlns="http://www.w3.org/2000/svg" xml:space="preserve" width="570.228mm" height="50.943mm" version="1.1" style="shape-rendering:geometricPrecision; text-rendering:geometricPrecision; image-rendering:optimizeQuality; fill-rule:evenodd; clip-rule:evenodd"
viewBox="0 0 56959 5089"
 xmlns:xlink="http://www.w3.org/1999/xlink">
 <defs>
  <style type="text/css">
   <![CDATA[
    .fil2 {fill:#F19E0F}
    .fil1 {fill:white}
    .fil0 {fill:url(#id0)}
   ]]>
  </style>
  <linearGradient id="id0" gradientUnits="userSpaceOnUse" x1="28479.3" y1="763.29" x2="28479.3" y2="4325.29">
   <stop offset="0" style="stop-opacity:1; stop-color:#02420D"/>
   <stop offset="1" style="stop-opacity:1; stop-color:#027218"/>
  </linearGradient>
 </defs>
 <g id="Слой_x0020_1">
  <metadata id="CorelCorpID_0Corel-Layer"/>
  <g id="_1104913888">
   <path class="fil0" d="M18998 4790c-78,-371 -230,-819 -3,-1021 3,-3 6,-6 9,-8 -2,285 -5,705 -6,1029zm18 -2221c-4,-3 -399,-1860 -389,-1406 10,431 -70,1497 -66,1505 20,36 -426,-575 -371,-341 -378,-177 -81,-307 -380,213 -2,3 -57,-326 -328,-612 -207,-218 -281,-848 -256,0 3,128 -177,1201 -185,991 -3,-72 -165,-744 -230,-226 -34,264 -88,-270 -272,17 -160,248 -21,-294 -208,211 -53,144 -65,-471 -82,-588 -74,-524 564,-1721 -112,-444 -344,649 -199,1490 -276,734 -55,-543 -120,536 -293,-377 -74,1 -11,346 -131,382 -29,-27 -118,-365 -160,27 0,4 -27,-228 -118,-494 -90,-265 -247,-562 -500,-694 -25,43 109,305 209,642 100,340 168,755 15,1079 -3,7 -188,-591 -228,-509 -147,303 196,135 -137,34 -146,-45 -65,307 -179,215 -120,88 42,185 -204,148 -171,92 -80,720 -158,-500 -5,-90 -67,-1595 -89,-1287 0,4 -122,685 -240,1276 -116,584 -232,1083 -222,763 2,-71 -242,-963 -229,-306 2,84 -67,634 -133,47 -118,-1050 -401,884 -360,-195 33,-842 640,-1698 -213,-396 -43,65 -315,422 -260,207 103,-408 252,-1257 -115,-267 -177,481 -157,-264 -173,-308 -104,-285 -639,1088 -630,854 18,-436 -319,-1236 -217,-455 59,448 -270,-1016 -256,-54 3,216 -36,1219 -143,399 -56,-429 -673,-1435 -510,-835 77,282 45,935 -69,500 -37,-143 25,477 -140,247 22,126 -40,229 -77,335 -99,22 12,199 -123,-134 -42,1 -27,436 -116,163 -121,-370 -436,-539 -368,-1070 50,-389 -742,1172 -622,970 2,-2 46,-802 -167,-221 -76,207 18,-559 -139,115 -187,797 -21,-301 -645,-811 -174,-141 146,307 -38,644 -126,230 -57,-494 -179,-2 -110,442 -214,-255 -189,158 12,183 -268,985 -180,-74 1,-16 73,-1107 5,-822 -55,235 -498,713 -498,1148 -12,4 -364,-1579 -352,-645 3,276 -49,241 -44,-108 14,-1065 -151,6 -179,224 -37,298 -200,114 -70,342 -250,-131 -333,294 -289,-648 0,-5 72,-1253 -25,-998 -114,298 -248,-1621 -249,606 -1,125 -135,1530 -139,684 -2,-324 -324,-3042 -364,-1100 -17,854 -233,-1164 -291,40 -28,571 -157,19 -194,110 -62,156 -90,718 -268,705 0,-359 -74,-624 -124,-913 -51,-291 -83,-609 11,-1062 270,-1298 -420,893 -578,1687 -194,975 1,375 -189,-277 -37,-127 -110,602 -203,-69 -31,-223 -331,598 -327,668 -59,-271 -47,-614 -80,-954 -34,-341 -116,-683 -360,-960 -2,145 24,517 29,877 4,360 -12,708 -88,811 -114,-563 -52,-445 -177,-137 -85,211 6,-404 -169,-70 -139,266 -788,-2529 -535,-806 64,438 -59,1194 -59,1150 0,-120 -3,-874 -126,-380 -149,600 6,-348 -371,-282 -114,444 216,-29 -386,-949 -205,-313 -178,-169 -148,153 29,321 -52,833 -255,1237 -71,141 -33,143 -33,301 -2,375 -2,751 -2,1126 0,375 0,1186 -1,1561 3154,0 6416,-13 9569,-13l9421 0 0 1c3153,0 6306,0 9459,0 3153,0 6415,12 9570,12l0 -13 9357 0c3153,0 6414,13 9569,13 -2,-375 -2,-1186 -2,-1561 0,-375 0,-751 -2,-1126 0,-158 39,-160 -32,-301 -203,-404 -285,-916 -255,-1237 29,-322 56,-466 -148,-153 -602,920 -273,1393 -387,949 -377,-66 -222,882 -371,282 -123,-494 -125,260 -125,380 0,44 -124,-712 -59,-1150 253,-1723 -396,1072 -535,806 -175,-334 -85,281 -169,70 -125,-308 -63,-426 -177,137 -77,-103 -93,-451 -88,-811 5,-360 30,-732 29,-877 -244,277 -327,619 -360,960 -33,340 -21,683 -80,954 4,-70 -296,-891 -327,-668 -93,671 -167,-58 -204,69 -189,652 5,1252 -188,277 -158,-794 -848,-2985 -579,-1687 94,453 62,771 12,1062 -51,289 -124,554 -124,913 -179,13 -206,-549 -268,-705 -37,-91 -167,461 -194,-110 -58,-1204 -274,814 -292,-40 -39,-1942 -361,776 -363,1100 -4,846 -139,-559 -139,-684 -2,-2227 -135,-308 -249,-606 -98,-255 -25,993 -25,998 44,942 -40,517 -289,648 129,-228 -33,-44 -71,-342 -27,-218 -193,-1289 -178,-224 4,349 -48,384 -44,108 12,-934 -341,649 -352,645 0,-435 -443,-913 -499,-1148 -68,-285 5,806 6,822 88,1059 -192,257 -181,74 25,-413 -78,284 -188,-158 -122,-492 -53,232 -179,2 -184,-337 135,-785 -38,-644 -624,510 -458,1608 -645,811 -158,-674 -63,92 -139,-115 -213,-581 -169,219 -168,221 121,202 -672,-1359 -622,-970 68,531 -247,700 -367,1070 -89,273 -74,-162 -116,-163 -135,333 -25,156 -124,134 -36,-106 -99,-209 -76,-335 -165,230 -104,-390 -141,-247 -113,435 -145,-218 -68,-500 163,-600 -454,406 -510,835 -108,820 -146,-183 -143,-399 14,-962 -316,502 -257,54 103,-781 -234,19 -217,455 10,234 -526,-1139 -630,-854 -16,44 5,789 -173,308 -366,-990 -217,-141 -114,267 54,215 -218,-142 -261,-207 -853,-1302 -245,-446 -213,396 42,1079 -241,-855 -359,195 -67,587 -135,37 -134,-47 14,-657 -230,235 -228,306 9,320 -106,-179 -223,-763 -117,-591 -239,-1272 -239,-1276 -23,-308 -84,1197 -90,1287 -78,1220 14,592 -158,500 -245,37 -83,-60 -203,-148 -114,92 -33,-260 -179,-215 -334,101 10,269 -137,-34 -40,-82 -225,516 -229,509 -153,-324 -85,-739 16,-1079 99,-337 234,-599 209,-642 -253,132 -410,429 -500,694 -91,266 -118,498 -118,494 -42,-392 -132,-54 -160,-27 -120,-36 -57,-381 -132,-382 -173,913 -238,-166 -293,377 -76,756 68,-85 -275,-734 -676,-1277 -38,-80 -113,444 -17,117 -28,732 -82,588 -186,-505 -47,37 -207,-211 -184,-287 -239,247 -272,-17 -66,-518 -227,154 -230,226 -9,210 -189,-863 -185,-991 25,-848 -50,-218 -257,0 -270,286 -325,615 -327,612 -299,-520 -2,-390 -381,-213 56,-234 -391,377 -371,341 5,-8 -75,-1074 -65,-1505 10,-454 -370,1160 -374,1163 -180,-355 -251,-786 -223,-1061 29,-291 56,-421 -149,-138 -602,833 -272,1261 -386,859 -377,-60 -222,798 -371,255 -123,-447 -126,235 -126,344 0,40 -123,-645 -59,-1041 254,-1559 -395,970 -534,730 -175,-303 -85,254 -170,63 -124,-279 -63,-385 -177,124 -76,-93 -92,-408 -87,-734 4,-325 30,-662 28,-793 -243,250 -326,560 -359,868 -34,308 -21,618 -80,863 3,-63 -297,-806 -328,-604 -92,607 -166,-53 -203,63 -190,589 123,1107 -189,250 -36,-99 -848,-1430 -578,-637 94,277 62,471 11,649 -50,177 -123,338 -123,558 -179,7 -206,-336 -269,-431 -36,-56 -166,282 -194,-67 -58,-736 -273,497 -291,-25 -40,-1186 -362,474 -363,672 -4,517 -139,-341 -139,-418 -2,-1360 -136,-188 -250,-370 -97,-155 -25,607 -24,610 43,576 -40,316 -290,396 130,-139 -33,-27 -70,-209 -27,-133 -193,-788 -179,-137 5,213 -47,235 -44,66 12,-571 -340,396 -352,394 0,-266 -442,-557 -498,-701 -68,-174 4,492 6,502 88,647 -192,157 -181,45 25,-252 -79,174 -189,-97 -122,-300 -53,143 -178,2 -185,-206 135,-480 -38,-394 -625,312 -459,983 -646,496 -157,-412 -62,56 -138,-70 -214,-356 -170,133 -168,135 120,123 -672,-830 -622,-593 68,324 -247,428 -367,654 -89,167 -75,-99 -116,-100 -136,203 -25,95 -124,82 -36,-65 -99,-128 -76,-205 -166,141 -104,-238 -141,-151 -113,266 -145,-133 -69,-305 163,-367 -453,248 -510,510 -107,501 -145,-111 -142,-244 14,-588 -316,307 -257,33 103,-477 -234,12 -217,278 9,144 -526,-695 -630,-521 -16,26 5,481 -173,188 -367,-605 -218,-86 -114,163 54,131 -218,-87 -261,-127 -853,-795 -246,-272 -213,242 42,659 -241,-522 -360,120 -66,358 -135,22 -133,-29 14,-401 -230,143 -228,187 9,195 -107,-109 -223,-466 -118,-361 -239,-777 -240,-780 -22,-188 -83,731 -89,786 -78,745 13,362 -158,203 -246,33 -84,-55 -204,-134 -114,82 -32,-236 -179,-195 -333,91 10,243 -137,-31 -39,-74 -225,467 -228,461 -153,-294 -85,-669 15,-977 100,-305 234,-542 210,-581 -253,120 -411,388 -501,628 -90,241 -117,450 -118,448 -41,-355 -131,-50 -160,-25 -119,-33 -57,-345 -131,-345 -173,825 -238,-151 -293,340 -76,685 68,-76 -276,-664 -676,-1156 -38,-72 -112,402 -17,106 -29,662 -82,532 -186,-457 -47,34 -207,-191 -185,-260 -239,224 -272,-16 -66,-468 -228,140 -231,205 -8,190 -188,-781 -184,-896 25,-768 -50,-197 -257,0 -271,258 -326,556 -327,553 -299,-470 -2,-352 -381,-192 55,-212 -391,340 -371,308 5,-8 142,-775 202,-926 153,-386 -653,595 -657,597zm19008 1273c0,190 0,435 0,667 57,-253 98,-504 0,-667z"/>
   <g>
    <path class="fil1" d="M27107 3192c-109,-334 587,-397 263,-96 -128,118 257,-110 284,87 11,82 -198,82 -57,82 115,0 175,98 59,145 -157,62 -218,-55 -261,-79 39,-50 52,171 -108,163 -64,-3 -133,-130 -94,-146 75,44 -409,181 -322,-26 33,-78 252,-28 109,-37 -54,-3 -171,-178 -72,-172 8,-63 194,64 199,79z"/>
    <ellipse class="fil2" cx="27272" cy="3235" rx="63" ry="49"/>
   </g>
   <g>
    <path class="fil1" d="M38445 2524c-53,-163 288,-194 129,-47 -63,58 126,-54 139,43 6,40 -96,40 -28,40 57,0 86,48 29,71 -77,31 -106,-27 -128,-38 19,-25 26,84 -53,80 -31,-2 -65,-64 -46,-72 37,22 -200,89 -157,-13 16,-38 123,-14 53,-18 -27,-1 -84,-87 -35,-84 4,-31 95,31 97,38z"/>
    <ellipse class="fil2" cx="38526" cy="2545" rx="31" ry="24"/>
   </g>
  </g>
 </g>
</svg>
