<?xml version="1.0" encoding="UTF-8"?>
<!DOCTYPE svg PUBLIC "-//W3C//DTD SVG 1.1//EN" "http://www.w3.org/Graphics/SVG/1.1/DTD/svg11.dtd">
<!-- Creator: CorelDRAW X7 -->
<svg xmlns="http://www.w3.org/2000/svg" xml:space="preserve" width="570.125mm" height="53.2765mm" version="1.1" style="shape-rendering:geometricPrecision; text-rendering:geometricPrecision; image-rendering:optimizeQuality; fill-rule:evenodd; clip-rule:evenodd"
viewBox="0 0 56948 5322"
 xmlns:xlink="http://www.w3.org/1999/xlink">
 <defs>
  <style type="text/css">
   <![CDATA[
    .fil6 {fill:black}
    .fil3 {fill:black}
    .fil0 {fill:#02420D}
    .fil2 {fill:#F19E0F}
    .fil1 {fill:white}
    .fil8 {fill:url(#id0)}
    .fil7 {fill:url(#id1)}
    .fil5 {fill:url(#id2)}
    .fil4 {fill:url(#id3)}
   ]]>
  </style>
  <radialGradient id="id0" gradientUnits="userSpaceOnUse" gradientTransform="matrix(1.22415 -0.291166 0.494383 0.800424 -5077 6315)" cx="21255.1" cy="633.117" r="93.9642" fx="21255.1" fy="633.117">
   <stop offset="0" style="stop-opacity:1; stop-color:white"/>
   <stop offset="0.360784" style="stop-opacity:1; stop-color:black"/>
   <stop offset="0.0313725" style="stop-opacity:1; stop-color:#7F7F7F"/>
   <stop offset="1" style="stop-opacity:1; stop-color:black"/>
  </radialGradient>
  <radialGradient id="id1" gradientUnits="userSpaceOnUse" gradientTransform="matrix(-0.887881 1.18124 -1.67398 -0.907454 41197 -23887)" cx="21254.5" cy="639.61" r="179.807" fx="21254.5" fy="639.61">
   <stop offset="0" style="stop-opacity:1; stop-color:#FEFEFE"/>
   <stop offset="0.0705882" style="stop-opacity:1; stop-color:#F42416"/>
   <stop offset="0.509804" style="stop-opacity:1; stop-color:#F4171E"/>
   <stop offset="1" style="stop-opacity:1; stop-color:#7C1019"/>
  </radialGradient>
  <radialGradient id="id2" gradientUnits="userSpaceOnUse" gradientTransform="matrix(1.27311 -0.338601 0.462208 0.930824 -9817 12082)" xlink:href="#id0" cx="35645.4" cy="176.881" r="124.54" fx="35645.4" fy="176.881">
  </radialGradient>
  <radialGradient id="id3" gradientUnits="userSpaceOnUse" gradientTransform="matrix(-0.946724 1.32935 -1.61324 -1.02122 69684 -47001)" xlink:href="#id1" cx="35640.5" cy="186.899" r="246.263" fx="35640.5" fy="186.899">
  </radialGradient>
 </defs>
 <g id="Слой_x0020_1">
  <metadata id="CorelCorpID_0Corel-Layer"/>
  <g id="_1103342576">
   <g>
    <path class="fil0" d="M15974 2493c372,-238 423,-1028 402,-1436 -1,-13 2,-29 4,-42l4 -17 -34 -9 -4 18c-4,16 -6,35 -5,52 20,391 -28,1175 -385,1403l-15 9 18 32 15 -10z"/>
    <g>
     <path class="fil1" d="M16326 971c-12,-7 -549,-387 -526,-151 22,226 518,108 176,219 -170,56 98,189 234,24 -96,252 64,203 175,59 22,-29 139,162 263,27 113,-123 -360,-140 -53,-128 99,4 230,-230 -94,-95 -13,6 219,-334 -40,-241 -169,61 -79,324 -78,-12 1,-155 -232,-140 -141,110 31,84 -119,-308 -197,-53 33,51 261,228 281,241z"/>
     <ellipse class="fil2" cx="16377" cy="1001" rx="72" ry="48"/>
    </g>
   </g>
   <g>
    <g>
     <path class="fil0" d="M20772 2880c558,-356 635,-1542 603,-2154 -1,-19 2,-43 7,-62l6 -26 -52 -13 -6 27c-5,24 -9,52 -8,77 31,587 -41,1762 -577,2104l-23 15 28 47 22 -15z"/>
     <g>
      <path class="fil1" d="M21300 597c-18,-11 -823,-580 -789,-226 34,339 778,163 265,329 -256,84 145,283 350,35 -143,378 96,305 262,89 34,-43 208,243 394,41 171,-186 -539,-211 -79,-192 148,6 346,-345 -141,-142 -19,8 329,-501 -59,-362 -254,91 -119,486 -117,-18 1,-233 -348,-210 -212,165 46,126 -179,-463 -295,-81 49,78 390,343 421,362z"/>
      <ellipse class="fil2" cx="21376" cy="643" rx="108" ry="73"/>
     </g>
    </g>
    <g>
     <path class="fil0" d="M36356 2209c-471,-274 -536,-1185 -509,-1655 1,-15 -2,-33 -6,-47l-5 -21 44 -9 5 20c4,19 8,41 7,59 -26,452 34,1354 487,1617l19 11 -23 36 -19 -11z"/>
     <g>
      <path class="fil1" d="M35705 433c-109,-398 592,-474 266,-115 -129,142 259,-131 286,105 12,98 -199,97 -57,97 115,0 176,118 59,173 -159,76 -219,-65 -263,-93 39,-60 52,204 -109,195 -64,-4 -134,-156 -95,-175 75,53 -412,217 -324,-32 32,-93 254,-33 109,-43 -54,-4 -172,-214 -72,-206 8,-75 195,76 200,94z"/>
      <ellipse class="fil2" cx="35872" cy="485" rx="64" ry="59"/>
     </g>
    </g>
    <g>
     <path class="fil3" d="M35431 160c124,-68 288,-54 365,32 50,56 51,128 12,190 14,2 26,3 27,3 3,21 -17,14 -39,14 -18,23 -41,44 -69,62 4,2 9,5 17,8 52,22 -26,12 -26,12 -7,-3 -12,-5 -16,-6 -31,16 -63,27 -96,33 4,6 9,13 9,19 0,37 -30,7 -45,-14 -89,8 -176,-18 -226,-74 -77,-86 -38,-211 87,-279z"/>
     <path class="fil4" d="M35454 159c149,-48 281,-42 336,32 54,75 30,199 -78,271 -7,3 -14,6 -22,9 -72,26 -62,13 -127,24 -25,4 -161,-26 -160,-39 1,-27 110,-134 134,-153 6,-5 137,-137 83,-101 -50,35 -63,71 -100,98 -72,50 -87,75 -133,140 -4,5 -54,-32 -60,-66 -9,-48 24,-149 62,-173 26,-16 47,-28 65,-42z"/>
     <path class="fil5" d="M35524 125c104,-22 213,1 272,67 28,32 41,69 39,107 -59,-59 -230,-114 -311,-174z"/>
     <ellipse class="fil3" transform="matrix(0.488692 -0.0585764 -0.00248067 0.470323 35387.7 303.248)" rx="86" ry="79"/>
     <ellipse class="fil3" transform="matrix(0.425806 0.0776758 -0.21466 0.33595 35478.5 183.005)" rx="86" ry="79"/>
     <ellipse class="fil3" transform="matrix(0.547733 0.126108 -0.209516 0.51129 35703 315.346)" rx="86" ry="79"/>
     <path class="fil6" d="M35646 120c-1,-9 -23,-95 -3,-95 40,0 11,8 10,47 -1,25 2,47 28,61 35,20 37,-7 52,-33 37,-68 104,-10 63,-6 -68,6 -39,56 -56,62 0,1 -87,29 -94,-36z"/>
     <ellipse class="fil3" transform="matrix(0.512253 0.11794 -0.195945 0.478172 35577.1 408.828)" rx="86" ry="79"/>
     <ellipse class="fil3" transform="matrix(0.547733 0.126108 -0.209516 0.51129 35560.5 275.59)" rx="86" ry="79"/>
    </g>
    <g>
     <path class="fil3" d="M21098 622c90,-44 210,-35 270,21 39,36 42,83 16,123 10,1 19,2 19,2 4,14 -11,10 -28,9 -12,15 -28,29 -48,40 3,2 7,4 13,6 39,14 -19,7 -19,7 -5,-2 -9,-3 -12,-3 -22,10 -45,17 -69,21 3,4 7,9 7,13 2,23 -22,4 -33,-10 -66,5 -130,-11 -169,-48 -60,-55 -36,-137 53,-181z"/>
     <path class="fil7" d="M21116 621c107,-30 205,-27 248,21 42,49 29,129 -48,176 -5,2 -10,4 -15,6 -53,16 -46,9 -93,16 -18,2 -119,-17 -119,-26 -1,-17 76,-87 93,-99 4,-3 95,-89 58,-65 -36,22 -45,46 -71,63 -51,33 -61,49 -93,91 -2,3 -40,-21 -46,-43 -8,-31 12,-97 39,-112 19,-11 34,-19 47,-28z"/>
     <path class="fil8" d="M21166 600c75,-15 156,0 202,43 22,21 33,45 33,69 -46,-38 -173,-74 -235,-112z"/>
     <ellipse class="fil3" transform="matrix(0.357086 -0.0380041 0.0149984 0.305143 21072.1 715.105)" rx="86" ry="79"/>
     <ellipse class="fil3" transform="matrix(0.315739 0.0503956 -0.145756 0.217963 21134.5 637.092)" rx="86" ry="79"/>
     <ellipse class="fil3" transform="matrix(0.407085 0.0818183 -0.135704 0.331722 21304.3 722.954)" rx="86" ry="79"/>
     <path class="fil6" d="M21256 597c-2,-7 -21,-63 -6,-63 29,0 8,6 9,31 0,16 3,30 23,40 26,12 27,-5 36,-22 25,-44 77,-6 46,-4 -49,4 -26,37 -38,40 0,1 -63,19 -70,-22z"/>
     <ellipse class="fil3" transform="matrix(0.380716 0.0765185 -0.126914 0.310235 21215.1 783.605)" rx="86" ry="79"/>
     <ellipse class="fil3" transform="matrix(0.407085 0.0818183 -0.135704 0.331722 21198.1 697.16)" rx="86" ry="79"/>
    </g>
    <path class="fil0" d="M19031 5316l0 6c-3171,-1 -6342,-2 -9511,-3 -3168,-1 -6337,-2 -9506,-2 -2,-514 -4,-1027 -4,-1541 0,-514 0,-1027 0,-1541 0,-1 0,-1 2,-1 0,-164 0,-328 -2,-491 -23,16 0,-380 0,-379 61,95 130,38 147,46 11,32 3,77 72,171 11,15 122,-12 141,88 44,-92 78,-158 95,-163 -9,-63 -15,-109 -7,-104 195,134 277,100 285,220 9,132 125,93 113,-15 -37,-322 120,134 133,156 168,288 139,-28 164,-72 34,-60 7,-172 21,-174 160,-24 -134,72 163,138 -9,-69 118,-186 113,-39 -6,159 97,45 97,44 17,-125 -46,-194 84,5 99,152 -10,109 103,113 9,22 27,126 24,146 -56,363 165,7 113,-110 -102,-227 25,-236 64,-143 125,296 137,81 115,70 -162,-75 17,-107 78,-28 192,248 42,-30 103,-82 125,3 104,55 129,100 69,-93 173,44 173,47 21,161 19,-69 82,5 183,214 -128,267 -55,340 257,259 326,-387 423,-167 68,154 13,-112 86,-73 278,151 -83,476 259,204 289,-230 100,111 123,154 63,116 169,-203 170,-204 64,-102 118,-25 131,28 -9,-18 -21,-33 25,-39 -6,62 117,97 99,6 -37,-185 0,-94 13,-143 38,-8 106,374 156,207 133,-442 170,-127 229,-173 207,-162 120,32 168,59 164,93 133,-145 154,-205 240,-108 -55,495 221,392 99,-224 -92,-218 -59,-274 81,-137 62,-22 76,-3 117,160 148,-110 154,-115 108,-97 99,135 154,164 156,-70 53,-297 56,-303 50,-110 111,135 121,147 76,88 67,-319 67,-320 0,-134 194,176 187,205 -31,119 73,216 83,82 26,-332 141,-57 115,13 -42,110 14,352 80,251 184,-284 -18,131 78,49 88,-75 87,-25 103,-68 60,-168 171,-94 163,-199 -32,-473 292,37 376,4 219,-87 100,128 177,71 291,-217 -19,288 93,223 263,-151 354,-17 219,89 -337,267 114,174 143,157 67,-42 154,26 160,-72 23,-55 0,-86 7,-96 96,-121 -26,-229 90,-203 362,81 140,-124 238,164 117,345 226,299 225,-57 -1,-65 43,-191 49,-52 3,66 367,160 309,46 -89,-171 71,-94 -54,-255 -178,-229 196,-213 217,50 13,154 196,128 138,-43 -149,-436 97,-196 30,-339 -64,-137 88,-301 91,259 -1,-345 143,-370 151,-534 11,-230 260,-43 124,189 -123,209 35,404 11,354 -129,-275 532,-636 274,-390 -163,155 -129,557 -78,565 158,24 83,53 99,174 30,231 125,-125 137,-134 74,-48 -79,-165 10,-143 178,45 39,-26 28,-100 -39,-282 263,137 278,143 138,-80 -125,-477 -125,-479 -11,-153 280,309 270,131 -30,-514 246,183 246,185 13,198 -36,101 66,89 -57,5 -42,466 56,192 178,-497 507,-384 396,-251 -236,284 -99,154 -156,318 -99,282 103,106 118,67 69,-185 194,-67 204,-196 9,-139 31,-55 74,-158 109,-264 120,220 242,-29 83,-170 163,108 163,109 -7,254 118,41 139,56 126,95 113,-184 115,-185 190,32 14,-20 78,-102 107,-137 61,74 171,80 -11,2 -11,-1 -23,2 -34,87 130,32 141,43 59,57 89,-98 111,54 56,383 213,-79 -12,-229 -288,-192 84,-148 130,-104 93,90 -67,-199 80,-139 249,104 187,68 188,149 5,250 202,-36 263,148 -236,127 -80,489 103,81 223,-496 399,246 419,106 25,-178 265,74 251,115 -70,214 118,137 132,98 45,-130 130,-223 146,-272 79,-242 218,-47 227,-60 98,-145 233,115 209,178 -115,299 70,242 160,-36 38,-116 -85,-447 -26,-420 220,104 367,224 373,431 -6,-266 129,33 194,-9 249,-160 28,87 139,146 207,112 209,-262 242,-297 199,-209 114,-3 238,50 93,40 231,203 202,145 -63,-125 180,-124 171,-41 -33,317 136,192 122,58 -18,-168 283,-78 286,60 7,368 198,70 196,53 -38,-317 51,-133 67,-182 56,-179 101,-23 200,52 53,41 46,-300 209,165 100,285 45,-161 90,-199 132,-115 127,156 135,181 133,444 154,-160 183,-172 150,-67 37,-37 64,-100 64,-149 267,151 261,75 -11,-161 299,-49 252,48 -137,276 137,308 199,40 48,-204 169,-115 187,-61 53,162 122,12 122,12 -8,-86 38,-132 97,-85 204,163 151,177 221,35 87,-178 161,-55 242,2l0 -22c93,-34 172,-220 274,-14 3,7 6,13 9,19 149,-296 242,-550 144,6 18,-16 40,-34 66,-55 57,-45 104,3 99,89 0,0 70,155 122,-4 17,-54 135,-135 186,73 67,273 341,259 200,-27 -49,-100 258,-183 249,-25 -4,75 193,-199 259,-47 29,65 -86,24 67,104 28,15 57,609 185,189 7,-24 -2,-288 133,-160 46,43 -6,468 91,204 158,-429 156,-101 210,-134 97,-60 140,-203 200,-23 16,49 102,-113 66,183 -2,15 192,322 196,-24 2,-130 305,-170 288,-17 -14,122 156,262 120,-35 -10,-80 233,-42 173,63 -28,49 107,-82 198,-103 124,-29 38,-228 238,-8 34,38 40,372 246,302 110,-38 -115,-289 139,-109 64,46 196,-195 194,36 2,-180 149,-261 369,-315 59,-14 -62,251 -23,357 94,250 278,322 160,52 -25,-57 110,-257 210,-120 8,12 146,-133 226,81 17,43 104,132 150,246 14,34 200,120 130,-65 -14,-35 224,-211 249,-63 20,117 191,-462 419,-34 185,346 341,75 103,-53 59,-140 259,110 261,-87 0,-64 -61,-43 188,-96 147,-31 -12,177 80,117 45,-29 419,-27 132,95 -223,94 -65,471 -10,177 22,-116 52,8 110,-31 12,-8 176,50 141,-21 -11,-2 -11,-1 -23,-3 111,5 63,-162 172,-47 65,68 -112,94 78,84 2,1 -8,215 116,152 22,-11 147,161 139,-32 0,-1 79,-208 164,-73 122,195 129,-170 241,37 44,80 65,18 75,123 9,97 134,16 203,158 15,31 218,169 118,-45 -58,-125 80,-24 -156,-246 -113,-106 216,-175 396,204 99,207 113,-136 56,-142 102,12 53,83 66,-64 0,-2 269,-514 244,-132 -9,132 280,-208 270,-94 0,1 -261,293 -124,355 16,-5 314,-312 277,-102 -10,53 -147,106 30,74 89,-17 -63,70 9,106 13,6 111,269 139,98 16,-91 -60,-112 98,-131 51,-6 83,-305 -80,-419 -260,-181 401,79 274,286 -23,37 135,-110 11,-263 -137,-171 109,-315 122,-143 10,122 154,134 152,392 2,-418 155,-302 92,-197 -66,109 180,-80 32,252 -58,130 125,143 137,27 20,-198 393,-230 215,-47 -123,127 36,61 -51,195 -57,87 305,-1 308,-52 7,-105 50,-12 50,37 0,270 110,299 224,31 97,-226 -124,-56 238,-143 118,-28 -5,64 90,150 8,7 -13,32 9,73 6,75 94,16 160,44 29,12 481,49 141,-131 -134,-72 -42,-183 219,-89 114,41 -197,-322 91,-183 80,38 -39,-120 178,-74 83,18 404,-428 375,-45 -7,85 103,14 165,142 16,33 15,-7 103,44 97,56 -106,-257 78,-49 67,75 120,-130 78,-214 -27,-54 87,-294 114,-26 11,109 115,16 84,-79 -7,-22 185,-306 185,-195 0,1 -6,339 68,256 12,-12 70,-224 122,-140 3,5 -101,209 55,247 56,-32 47,-226 155,-160 7,4 38,228 154,76 13,-18 -5,-113 76,-8 33,43 -158,64 -57,242 276,52 -21,-423 219,-368 21,49 -8,259 156,157 48,-30 -41,-187 167,-77 61,32 95,-250 229,120 51,141 116,-208 154,-207 15,43 51,-45 15,126 -17,84 105,35 99,-21 46,0 35,15 25,33 13,-49 68,-126 131,-45 1,2 108,276 170,162 22,-41 -164,-327 124,-158 346,204 -19,-45 258,-224 73,-48 18,208 86,54 98,-219 169,376 423,100 73,-79 -237,-87 -55,-314 63,-80 61,138 81,-17 1,-4 105,-150 174,-70 24,-47 3,-94 129,-113 61,42 -89,328 103,65 61,-84 240,-77 78,17 -23,14 -10,219 114,-83 40,-96 167,-104 65,130 -53,121 170,445 112,94 -3,-19 16,-123 25,-144 112,-17 5,37 103,-122 130,-211 67,-135 84,-15 0,1 104,104 97,-52 -7,-145 123,-44 114,25 297,-92 4,-162 164,-155 15,1 -13,116 21,173 25,42 -5,358 163,60 13,-22 171,-491 134,-166 -13,110 103,142 112,8 8,-122 90,-93 285,-236 25,-19 -72,438 -17,425 2,-1 130,15 132,15 -101,-299 98,-245 114,-267 70,-96 61,-141 74,-174 15,-9 84,47 145,-51 0,-1 25,399 0,383l-1 90c70,-59 136,-134 212,22 71,142 17,128 221,-35 59,-47 105,-1 97,85 0,0 69,150 122,-12 18,-54 139,-143 187,61 63,268 337,236 200,-40 -48,-97 263,-209 251,-48 -5,76 197,-224 261,-75 27,63 -86,33 65,100 28,12 49,616 183,172 7,-25 2,-296 135,-181 44,38 -10,484 89,199 163,-465 156,-124 210,-165 99,-75 143,-231 200,-52 15,49 104,-135 66,182 -2,17 190,315 197,-53 2,-138 303,-228 285,-60 -14,134 155,259 122,-58 -9,-83 234,-84 171,41 -28,58 109,-105 202,-145 124,-53 39,-259 238,-50 34,35 35,409 242,297 111,-59 -110,-306 139,-146 65,42 200,-257 194,9 6,-207 153,-327 374,-431 59,-27 -65,304 -27,420 90,278 275,335 160,36 -24,-63 111,-323 209,-178 9,13 148,-182 227,60 16,49 101,142 147,272 13,39 201,116 131,-98 -13,-41 226,-293 252,-115 20,140 196,-602 418,-106 183,408 339,46 103,-81 61,-184 259,102 263,-148 1,-81 -61,-45 189,-149 146,-60 -14,229 80,139 45,-44 417,-88 129,104 -224,150 -67,612 -11,229 22,-152 51,3 110,-54 12,-11 175,44 141,-43 -11,-3 -11,0 -23,-2 111,-6 64,-217 172,-80 64,82 -113,134 78,102 2,1 -12,280 114,185 21,-15 147,198 139,-56 0,-1 80,-279 164,-109 122,249 132,-235 242,29 42,103 64,19 74,158 9,129 134,11 204,196 14,39 216,215 118,-67 -58,-164 79,-34 -157,-318 -111,-133 218,-246 397,251 98,274 112,-187 55,-192 103,12 53,109 66,-89 1,-2 276,-699 246,-185 -10,178 282,-284 271,-131 -1,2 -263,399 -126,479 15,-6 317,-425 278,-143 -10,74 -149,145 28,100 89,-22 -64,95 10,143 12,9 107,365 137,134 16,-121 -59,-150 99,-174 52,-8 85,-410 -78,-565 -258,-246 403,115 274,390 -23,50 134,-145 12,-354 -137,-232 112,-419 123,-189 8,164 153,189 151,534 4,-560 155,-396 91,-259 -67,143 180,-97 31,339 -59,171 124,197 137,43 21,-263 395,-279 217,-50 -125,161 35,84 -53,255 -59,114 305,20 308,-46 7,-139 50,-13 50,52 -2,356 107,402 224,57 98,-288 -123,-83 238,-164 116,-26 -5,82 90,203 8,10 -15,41 8,96 5,98 93,30 160,72 28,17 480,110 142,-157 -135,-106 -43,-240 219,-89 113,65 -197,-440 94,-223 76,57 -42,-158 177,-71 83,33 408,-477 375,-4 -7,105 103,31 164,199 15,43 14,-7 103,68 96,82 -106,-333 78,-49 65,101 121,-141 80,-251 -27,-70 88,-345 114,-13 10,134 114,37 84,-82 -8,-29 186,-339 186,-205 0,1 -8,408 67,320 10,-12 71,-257 122,-147 2,6 -101,233 55,303 55,-29 46,-261 154,-164 6,5 37,275 154,115 14,-19 -5,-134 77,3 32,56 -158,50 -59,274 276,103 -19,-500 221,-392 20,60 -10,298 154,205 47,-27 -40,-221 167,-59 60,46 96,-269 229,173 50,167 118,-215 156,-207 13,49 50,-42 13,143 -18,91 105,56 99,-6 46,6 35,21 25,39 13,-53 68,-130 132,-28 0,1 106,320 169,204 23,-43 -165,-384 124,-154 341,272 -19,-53 259,-204 72,-39 17,227 86,73 97,-220 166,426 422,167 73,-73 -238,-126 -55,-340 63,-74 61,156 82,-5 0,-3 105,-140 173,-47 25,-45 4,-97 130,-100 61,52 -90,330 103,82 61,-79 240,-47 78,28 -23,11 -11,226 114,-70 39,-93 166,-84 65,143 -53,117 168,473 112,110 -3,-20 15,-124 25,-146 112,-4 4,39 103,-113 129,-199 66,-130 83,-5 1,1 103,115 97,-44 -5,-147 122,-30 113,39 297,-66 4,-162 164,-138 13,2 -14,114 21,174 25,44 -5,360 163,72 13,-22 171,-478 134,-156 -13,108 103,147 112,15 8,-120 90,-86 286,-220 8,-5 2,41 -8,104 17,5 51,71 95,163 19,-100 130,-73 141,-88 69,-94 61,-139 73,-171 17,-8 85,49 146,-46 0,-1 23,395 0,379 -2,163 -2,327 -2,491 2,0 2,0 2,1 0,514 0,1027 0,1541 0,514 -2,1027 -4,1541 -3168,0 -6337,1 -9506,2 -3135,1 -6271,2 -9407,3l0 0 -42 0 -61 0 0 0 -18887 -6zm37482 -3487c-22,-3 -40,-5 -40,-5 -32,7 -15,-131 2,-252 4,50 16,133 38,257zm-56078 0c23,-3 40,-5 40,-5 32,7 15,-131 -2,-252 -4,50 -15,133 -38,257z"/>
    <g>
     <path class="fil0" d="M39741 2209c471,-274 536,-1185 509,-1655 -1,-15 2,-33 5,-47l5 -21 -43 -9 -5 20c-5,19 -8,41 -7,59 26,452 -35,1354 -487,1617l-19 11 23 36 19 -11z"/>
     <g>
      <path class="fil1" d="M40392 433c109,-398 -593,-474 -266,-115 129,142 -260,-131 -287,105 -11,98 200,97 58,97 -116,0 -177,118 -60,173 159,76 220,-65 264,-93 -39,-60 -52,204 109,195 64,-4 134,-156 95,-175 -76,53 412,217 324,-32 -33,-93 -254,-33 -110,-43 55,-4 173,-214 73,-206 -8,-75 -195,76 -200,94z"/>
      <ellipse class="fil2" cx="40225" cy="485" rx="64" ry="59"/>
     </g>
    </g>
   </g>
  </g>
 </g>
</svg>
