<svg width="30mm" height="40mm" version="1.1" viewBox="0 0 3000 4000">
  <g id="_261029968">
   <path fill="#027218" d="M1256 3067c367,85 500,284 571,431 43,87 70,175 101,263 13,36 27,73 46,108 14,26 31,54 58,78l20 17 -94 15 -20 -18c-30,-26 -49,-56 -64,-84 -18,-35 -32,-70 -45,-104l-2 -7c-32,-87 -58,-175 -100,-262 -61,-125 -173,-301 -461,-388 -21,-6 -42,-12 -65,-17l-43 -10 54 -32 44 10z"/>
   <path fill="white" d="M1260 1499c367,231 501,771 572,1170 42,238 69,477 101,716 13,98 27,197 46,294 13,70 30,146 57,211l20 47 -94 40 -20 -48c-30,-72 -49,-154 -64,-230 -18,-93 -32,-188 -44,-282l-3 -18c-31,-238 -58,-476 -100,-712 -61,-340 -173,-820 -461,-1055 -20,-16 -42,-32 -65,-46l-43 -28 55 -86 43 27z"/>
   <circle fill="white" cx="1492" cy="1456" r="1374"/>
   <path fill="#F4171E" d="M1492 182c704,0 1274,570 1274,1274 0,704 -570,1274 -1274,1274 -703,0 -1274,-570 -1274,-1274 0,-704 571,-1274 1274,-1274z"/>
  </g>
    <text stroke="#000" transform="rotate(-8 1402,1358) matrix(65,0,0,64.6,-71644,-94552) " text-anchor="middle" font-family="Helvetica, Arial, sans-serif" font-size="24" id="svg_5" y="1494" x="1125" stroke-width="0" fill="#ffffff">40</text>
</svg>
