<svg width="30mm" height="40mm" version="1.1" viewBox="0 0 3000 4000">
 <g >
  <path fill="#027218" d="M1383 3052c187,63 290,356 323,449 52,148 87,296 116,444l3 17 -89 2 -3 -16c-12,-59 -24,-118 -39,-177 -21,-89 -46,-177 -77,-266 -25,-70 -109,-302 -236,-397 -19,-13 -38,-24 -59,-31l-33 -11 61 -25 33 11z"/>
  <path fill="white" d="M1383 1488c187,171 290,967 323,1219 52,402 87,805 116,1208l3 45 -89 6 -3 -44c-12,-160 -24,-320 -39,-480 -21,-242 -46,-483 -77,-723 -25,-191 -109,-823 -236,-1079 -19,-37 -38,-67 -59,-86l-33 -30 61 -66 33 30z"/>
  <path fill="white" d="M1440 37c664,0 1202,539 1202,1203 0,664 -538,1202 -1202,1202 -664,0 -1203,-538 -1203,-1202 0,-664 539,-1203 1203,-1203z"/>
  <path fill="#F4171E" d="M1440 125c615,0 1114,499 1114,1115 0,615 -499,1114 -1114,1114 -616,0 -1115,-499 -1115,-1114 0,-616 499,-1115 1115,-1115z"/>
 </g>
</svg>
