<svg xml:space="preserve" width="30mm" height="40mm" version="1.1" viewBox="0 0 3000 4000">
 <g >
  <path fill="#027218" d="M1596 3140c-14,7 -27,14 -40,21 -309,172 -282,474 -207,687 9,24 18,47 27,69l8 18 -97 5 -8 -17c-100,-232 -172,-608 239,-805l30 -14 78 22 -30 14z"/>
  <path fill="white" d="M1588 1782c-14,18 -27,37 -40,56 -309,468 -281,1288 -206,1867 8,66 17,129 27,188l7 49 -97 15 -8 -49c-99,-629 -172,-1652 239,-2186l30 -39 78 60 -30 39z"/>
  <path fill="white" d="M1454 73c731,0 1323,593 1323,1324 0,731 -592,1323 -1323,1323 -731,0 -1324,-592 -1324,-1323 0,-731 593,-1324 1324,-1324z"/>
  <path fill="#F4171E" d="M1454 169c678,0 1227,550 1227,1228 0,677 -549,1227 -1227,1227 -678,0 -1227,-550 -1227,-1227 0,-678 549,-1228 1227,-1228z"/>
 </g>
    <text stroke="#000" transform="rotate(-1 1402,1358) matrix(64.9,0,0,64.6,-71644,-94552) " text-anchor="middle" font-family="Helvetica, Arial, sans-serif" font-size="24" id="svg_5" y="1494" x="1125" stroke-width="0" fill="#ffffff">40</text>
</svg>
