<svg width="30mm" height="40mm" version="1.1" viewBox="0 0 3000 4000">
 <g>
  <path fill="#027218" d="M1401 3173c-66,65 -132,131 -186,197 -43,53 -83,109 -98,164 -10,38 -20,76 -38,113 -20,44 -42,87 -60,130l-6 16 -105 -4 6 -16c18,-43 40,-86 60,-130 18,-37 28,-74 38,-111 15,-57 55,-115 100,-169 51,-63 112,-125 174,-186 150,-150 267,-155 115,-4z"/>
  <path fill="white" d="M1313 1626l-10 -5 -72 -40 25 -46c29,-52 58,-106 90,-156 22,-34 55,-84 104,-62 57,24 29,107 18,151 -19,75 -42,149 -64,223 -66,221 -132,442 -186,666 -43,181 -83,371 -97,556 -10,128 -21,256 -39,384 -20,147 -42,292 -60,440l-6 52 -105 -13 6 -52c18,-148 40,-294 60,-442 18,-125 28,-251 38,-377 15,-191 56,-386 100,-572 51,-212 112,-421 175,-629l0 -1c7,-26 15,-51 23,-77z"/>
  <circle fill="white" cx="1476" cy="1452" r="1422"/>
  <path fill="#F4171E" d="M1476 134c728,0 1318,590 1318,1318 0,728 -590,1318 -1318,1318 -728,0 -1318,-590 -1318,-1318 0,-728 590,-1318 1318,-1318z"/>
 </g>
    <text stroke="#000" transform="rotate(10 1402,1358) matrix(65,0,0,64.6,-71644,-94552) " text-anchor="middle" font-family="Helvetica, Arial, sans-serif" font-size="24" id="svg_5" y="1494" x="1125" stroke-width="0" fill="#ffffff">40</text>
</svg>
