<svg xmlns="http://www.w3.org/2000/svg" xml:space="preserve" width="30mm" height="30mm" version="1.1" style="shape-rendering:geometricPrecision; text-rendering:geometricPrecision; image-rendering:optimizeQuality; fill-rule:evenodd; clip-rule:evenodd"
viewBox="0 0 3000 3000"
 xmlns:xlink="http://www.w3.org/1999/xlink">
 <defs>
  <style type="text/css">
   <![CDATA[
    .str0 {stroke:#FEFEFE;stroke-width:150}
    .fil1 {fill:#FEFEFE}
    .fil0 {fill:#31C2CB}
    .fnt0 {font-weight:normal;font-size:1093.79px;font-family:'Arial'}
   ]]>
  </style>
 </defs>
 <g id="Слой_x0020_1">
  <path class="fil0 str0" d="M1611 298l336 617c18,32 47,53 84,60l691 121c44,8 78,38 92,80 14,43 5,87 -26,120l-483 509c-25,28 -36,62 -31,99l98 695c6,45 -11,86 -48,113 -36,26 -81,30 -121,11l-634 -301c-34,-16 -70,-16 -103,0l-631 308c-41,20 -85,16 -122,-10 -37,-26 -54,-67 -49,-112l91 -696c5,-37 -6,-71 -32,-98l-488 -505c-32,-32 -42,-76 -28,-119 14,-43 47,-72 91,-81l690 -129c37,-6 66,-28 84,-61l329 -620c21,-39 60,-63 105,-63 45,0 83,23 105,62z"/>
 </g>
</svg>
